<?xml version="1.0" standalone="no"?>
<!DOCTYPE svg PUBLIC "-//W3C//DTD SVG 20010904//EN"
 "http://www.w3.org/TR/2001/REC-SVG-20010904/DTD/svg10.dtd">
<svg version="1.0" xmlns="http://www.w3.org/2000/svg"
 width="738.000000pt" height="415.000000pt" viewBox="0 0 738.000000 415.000000"
 preserveAspectRatio="xMidYMid meet">

<g transform="translate(0.000000,415.000000) scale(0.100000,-0.100000)"
fill="#9da3b9" stroke="none">
<path d="M1177 3303 c-4 -4 -26 -8 -50 -10 -53 -5 -62 -14 -59 -58 3 -36 -22
-85 -42 -85 -7 0 -35 11 -62 25 -52 27 -79 31 -89 15 -3 -5 -15 -10 -25 -10
-12 0 -29 -15 -42 -35 -13 -19 -38 -42 -56 -51 -22 -10 -35 -24 -39 -44 -3
-16 -14 -37 -24 -46 -27 -24 -24 -56 10 -95 17 -19 42 -49 56 -66 30 -36 59
-42 74 -15 18 31 13 -9 -10 -73 -31 -88 -23 -157 28 -233 21 -31 43 -66 49
-78 23 -42 34 -235 19 -321 -5 -26 -11 -33 -28 -33 -27 0 -36 -7 -65 -44 -13
-17 -20 -37 -17 -47 4 -11 -4 -24 -21 -38 -21 -17 -28 -32 -32 -71 -2 -28 -9
-53 -13 -56 -12 -7 -11 -54 1 -54 6 0 10 -13 10 -29 0 -48 27 -100 55 -106 14
-3 36 -7 50 -10 15 -3 22 -10 19 -18 -3 -8 4 -25 15 -38 l19 -24 334 -4 c313
-3 335 -2 355 15 14 11 24 32 25 51 1 18 4 30 7 28 2 -3 11 1 19 8 11 8 13 8
9 0 -9 -14 21 -7 43 10 20 16 50 71 50 94 1 10 7 29 14 43 11 19 12 29 3 45
-11 18 -13 15 -18 -25 l-6 -45 -1 53 c-2 37 1 51 9 46 18 -11 0 35 -31 78 -16
21 -26 46 -24 56 6 25 -31 64 -69 71 -28 6 -34 13 -50 61 -14 44 -16 62 -7 91
5 20 10 64 10 97 0 49 6 72 31 119 18 32 37 65 44 73 6 8 20 41 30 74 21 70
16 145 -14 205 -12 22 -17 41 -12 41 5 0 13 -9 16 -20 11 -34 36 -23 102 46
64 67 75 94 49 123 -8 9 -17 29 -20 44 -7 38 -21 53 -56 60 -19 4 -35 17 -45
36 -30 60 -101 75 -145 31 -10 -10 -34 -22 -52 -25 -29 -5 -35 -3 -45 22 -7
15 -13 35 -13 44 0 29 -29 86 -47 94 -25 9 -218 17 -226 8z m63 -38 c0 -14 4
-25 9 -25 4 0 6 11 4 24 -4 20 -1 24 21 24 22 0 26 -5 26 -29 0 -16 4 -29 9
-29 5 0 17 -3 27 -7 12 -4 15 -2 12 8 -3 8 -12 13 -22 11 -10 -2 -16 4 -16 17
0 21 22 41 27 25 2 -6 16 -9 31 -7 23 4 30 -2 46 -36 10 -21 15 -44 12 -50 -4
-6 1 -22 10 -36 9 -14 14 -34 11 -45 -3 -11 -2 -22 2 -24 6 -4 7 -18 2 -79 0
-10 -5 -15 -11 -12 -10 6 -14 -12 -10 -53 1 -13 -8 -35 -21 -48 l-22 -24 -12
23 c-9 19 -7 25 12 40 13 10 23 29 23 43 0 22 -2 23 -22 12 -13 -7 -26 -17
-29 -22 -4 -5 -11 -6 -17 -2 -5 3 -13 -1 -16 -10 -4 -10 -2 -13 7 -8 9 5 9 3
-1 -7 -7 -8 -37 -15 -72 -16 -51 -2 -60 1 -65 18 -4 10 -10 17 -14 14 -5 -2
-20 6 -35 20 -23 21 -26 22 -26 6 0 -27 -12 -33 -32 -14 -32 29 -15 58 29 47
27 -7 29 61 2 94 l-19 25 -1 -24 c0 -13 -3 -18 -6 -11 -8 20 -22 14 -16 -8 3
-11 10 -17 15 -14 19 12 27 -19 10 -33 -20 -15 -46 -17 -37 -3 3 5 2 17 -3 26
-8 14 -11 14 -27 -3 -13 -13 -20 -14 -23 -5 -2 6 -16 12 -32 12 -26 0 -28 2
-21 28 4 15 6 33 4 40 -3 6 2 12 11 12 9 0 16 -7 16 -15 0 -8 5 -15 11 -15 5
0 8 -4 5 -9 -3 -5 1 -14 9 -21 13 -11 14 -10 8 6 -6 17 -5 17 10 5 21 -17 31
-9 33 27 3 51 4 54 18 49 12 -5 14 4 13 40 -2 43 0 47 27 54 19 5 35 4 43 -3
9 -8 13 -7 13 2 0 7 7 10 15 6 8 -3 15 -1 15 4 0 6 7 10 15 10 9 0 15 -9 15
-25z m-299 -112 c6 -16 7 -43 3 -63 -5 -19 -7 -47 -5 -62 1 -19 -2 -27 -11
-25 -7 2 -10 2 -5 0 11 -7 9 -53 -3 -53 -5 0 -10 7 -10 15 0 8 -7 15 -15 15
-8 0 -15 5 -15 10 0 6 5 10 10 10 18 0 11 20 -7 21 -15 0 -14 3 5 16 12 8 22
25 21 37 0 21 0 21 -9 -1 -11 -28 -30 -31 -23 -4 3 14 -3 21 -26 29 -43 15
-39 39 12 62 57 25 66 24 78 -7z m703 11 c9 -3 16 -12 16 -20 0 -8 6 -13 13
-11 6 1 12 -7 12 -18 0 -13 -8 -21 -22 -23 -13 -2 -23 -9 -23 -17 0 -7 -13
-18 -30 -24 -16 -5 -30 -17 -30 -25 0 -9 -7 -16 -15 -16 -19 0 -19 4 0 40 9
17 11 30 5 30 -5 0 -11 8 -11 18 -1 9 -4 4 -8 -13 -4 -21 -13 -31 -29 -33 -12
-2 -22 -8 -22 -13 0 -12 7 -11 32 2 18 10 19 8 13 -13 -4 -12 -8 -24 -9 -25
-1 -1 -15 -3 -31 -5 -19 -2 -32 -10 -37 -23 -6 -19 -6 -19 -7 2 -1 12 7 26 17
32 13 8 14 12 5 22 -14 14 0 39 22 39 7 0 18 7 25 15 11 13 10 14 -6 9 -10 -4
-25 -12 -32 -17 -21 -16 -27 1 -7 23 10 11 29 20 43 20 14 0 35 11 48 25 23
25 40 30 68 19z m-609 -34 c3 -5 1 -10 -4 -10 -6 0 -11 5 -11 10 0 6 2 10 4
10 3 0 8 -4 11 -10z m-200 -45 c30 -25 30 -25 7 -31 -23 -7 -23 -7 -2 -21 11
-8 20 -25 20 -39 0 -13 4 -24 10 -24 5 0 21 -12 35 -27 19 -21 25 -35 21 -55
-4 -20 -2 -26 8 -22 8 3 17 1 21 -5 8 -14 25 -14 25 -1 0 6 -6 10 -14 10 -17
0 -21 6 -29 40 -11 44 5 54 46 30 36 -21 47 -43 27 -55 -5 -3 -7 -12 -4 -20 4
-8 -1 -17 -9 -21 -9 -3 -13 -12 -10 -21 4 -9 -1 -22 -12 -29 -10 -8 -17 -14
-14 -15 40 -7 45 -5 41 23 -4 29 12 39 22 13 6 -17 -18 -134 -35 -175 -11 -24
-12 -24 -20 -5 -12 31 -10 39 6 25 13 -11 15 -8 10 26 -3 22 0 41 6 45 7 4 9
12 5 18 -13 20 -46 -10 -40 -36 4 -14 2 -23 -6 -23 -7 0 -9 -8 -5 -19 3 -11 1
-22 -5 -26 -17 -10 -11 -25 8 -19 10 4 13 3 6 -3 -6 -4 -14 -17 -18 -28 -7
-16 -9 -17 -13 -5 -3 8 -15 22 -26 31 -12 10 -17 21 -12 29 6 9 9 9 16 -1 15
-25 21 0 8 30 -8 18 -21 31 -32 31 -15 0 -15 -3 -5 -21 10 -17 10 -23 1 -26
-7 -3 -13 -11 -13 -19 0 -11 -5 -10 -22 6 -12 11 -18 23 -14 27 4 4 11 1 15
-6 6 -10 10 -10 16 -2 4 7 -1 23 -10 37 -18 27 -13 46 7 26 21 -21 31 -13 14
13 -21 32 -20 38 7 29 22 -7 22 -6 4 14 -19 21 -20 60 -2 54 6 -2 9 -10 7 -18
-2 -8 4 -17 13 -20 19 -8 20 -33 1 -40 -12 -4 -12 -10 1 -35 8 -16 21 -29 29
-29 19 0 18 19 -1 26 -24 9 -19 37 5 29 23 -7 28 10 5 19 -23 8 -18 36 6 36
18 0 20 2 8 16 -12 14 -14 14 -25 0 -16 -22 -27 -20 -21 3 3 12 -3 27 -14 37
-20 18 -26 44 -9 44 5 0 14 -8 19 -17 7 -12 10 -13 11 -4 0 7 -11 26 -25 43
-24 28 -25 29 -24 6 0 -13 -1 -32 -3 -43 -5 -33 -78 -85 -78 -56 0 5 11 16 25
25 29 19 33 57 9 76 -13 12 -14 10 -3 -14 11 -23 10 -29 -7 -47 -22 -22 -49
-18 -58 9 -3 9 -12 27 -21 38 -15 21 -15 23 16 38 43 21 44 21 19 -14 -19 -26
-20 -32 -7 -44 18 -18 57 -17 57 2 0 7 -4 11 -8 8 -4 -2 -9 4 -9 15 -1 12 9
25 28 34 16 9 29 17 29 19 0 2 -27 3 -60 2 -47 -1 -62 -5 -74 -21 -11 -15 -17
-17 -27 -8 -9 9 -6 18 12 41 13 17 31 30 39 29 32 -1 50 3 50 12 0 17 -42 24
-51 10 -7 -11 -9 -11 -9 2 0 9 14 22 30 29 17 7 30 16 30 21 0 15 14 10 45
-16z m922 -12 c22 -5 41 -39 29 -50 -3 -4 -6 1 -6 10 0 26 -25 20 -41 -10 -11
-20 -11 -27 -1 -30 6 -3 12 -11 12 -19 0 -8 5 -14 10 -14 6 0 10 9 10 19 0 11
5 23 10 26 12 7 49 -33 50 -52 0 -15 -16 -17 -25 -3 -3 6 -11 10 -17 10 -6 0
-3 -10 8 -22 10 -13 12 -17 4 -10 -21 18 -35 15 -19 -5 8 -9 9 -14 2 -10 -7 4
-13 0 -15 -9 -3 -15 -4 -15 -18 1 -9 11 -10 16 -2 11 16 -9 16 16 0 32 -22 22
-44 13 -61 -26 -22 -50 -21 -52 6 -51 16 1 18 2 5 6 -20 5 -23 18 -8 28 6 3
10 1 10 -6 0 -7 3 -9 7 -6 3 4 15 -1 26 -10 15 -13 18 -14 12 -3 -6 12 -5 12
5 3 15 -14 3 -36 -16 -29 -9 3 -14 -2 -14 -14 0 -11 -7 -20 -15 -20 -8 0 -15
6 -15 13 0 7 -9 18 -20 25 -29 18 -28 77 3 87 19 6 19 8 5 12 -12 3 -18 14
-18 35 0 29 2 30 30 24 19 -3 29 -2 25 4 -3 6 -17 10 -31 10 -16 0 -24 6 -24
16 0 24 31 45 55 38 11 -3 30 -8 42 -11z m-757 -23 c9 0 23 -50 16 -57 -2 -3
-18 8 -35 23 -30 27 -33 51 -4 40 8 -3 18 -6 23 -6z m48 -26 c0 -34 -1 -35
-14 -15 -12 17 -13 23 -2 36 7 8 14 14 15 15 0 0 1 -16 1 -36z m602 16 c0 -5
-9 -14 -20 -20 -26 -14 -26 -30 -1 -23 31 8 14 -37 -19 -51 -15 -6 -25 -17
-23 -23 5 -15 -13 -17 -22 -3 -12 20 5 51 25 45 22 -7 36 10 15 19 -22 8 -18
31 8 49 26 19 37 21 37 7z m120 -19 c0 -12 -20 -25 -27 -18 -7 7 6 27 18 27 5
0 9 -4 9 -9z m-745 -52 c8 15 25 4 25 -16 0 -12 -3 -13 -14 -4 -9 8 -16 8 -20
2 -8 -12 -66 16 -66 33 0 26 14 26 41 0 17 -16 29 -22 34 -15z m535 11 c0 -6
-8 -13 -17 -16 -10 -3 -25 -9 -34 -14 -24 -13 -32 0 -12 22 17 19 63 25 63 8z
m-430 -47 c0 -8 5 -11 11 -8 6 4 13 -2 16 -14 3 -11 14 -23 24 -26 12 -4 19
-16 19 -32 0 -33 -20 -26 -41 14 -13 27 -17 29 -26 14 -10 -14 -12 -13 -21 11
-6 14 -16 29 -21 33 -18 11 -12 20 14 21 16 1 25 -3 25 -13z m337 0 c-2 -10
-8 -27 -13 -38 -6 -16 -3 -15 15 5 l22 25 -4 -25 c-2 -14 -8 -34 -13 -45 -7
-18 -6 -18 9 -6 14 11 17 11 17 -1 0 -8 -6 -23 -14 -34 -16 -21 -14 -24 -36
47 -12 39 -5 89 12 89 6 0 8 -8 5 -17z m83 -6 c0 -12 -34 -47 -45 -47 -10 0
-5 36 7 48 16 16 38 15 38 -1z m62 -47 c-43 -39 -48 -26 -9 22 25 31 33 36 35
23 2 -10 -9 -30 -26 -45z m-562 35 c7 -9 9 -26 5 -47 -10 -44 -16 -53 -26 -37
-12 19 -11 42 1 34 12 -8 12 -8 1 33 -10 34 -2 42 19 17z m312 -50 c-2 -14 -7
-25 -11 -26 -3 0 -22 -2 -42 -5 -33 -4 -36 -2 -32 18 3 16 11 23 27 23 16 0
22 -4 18 -14 -3 -8 4 -5 16 7 28 28 30 28 24 -3z m190 2 c-23 -24 -32 -51 -10
-29 16 16 28 15 28 -3 0 -8 -4 -15 -10 -15 -5 0 -10 -4 -10 -9 0 -4 12 -6 28
-3 l27 5 -24 -27 c-26 -28 -22 -49 4 -22 31 31 48 16 18 -16 -9 -10 -13 -21
-9 -25 4 -5 12 0 17 10 6 9 17 17 24 17 19 0 19 -7 -2 -34 -32 -40 -46 -25
-115 117 -11 22 11 57 36 57 19 0 18 -1 -2 -23z m-299 -18 c4 -16 1 -20 -16
-17 -12 2 -23 11 -25 21 -5 25 34 22 41 -4z m-157 -14 c-3 -9 -11 -13 -16 -10
-8 5 -7 11 1 21 14 18 24 11 15 -11z m531 -5 c-2 -35 -17 -41 -17 -7 0 21 7
37 16 37 2 0 2 -13 1 -30z m-187 -1 c0 -5 -4 -9 -10 -9 -5 0 -10 7 -10 16 0 8
5 12 10 9 6 -3 10 -10 10 -16z m-300 -13 c0 -15 -29 -30 -39 -20 -3 3 3 12 13
20 24 17 26 17 26 0z m260 5 c0 -6 -4 -13 -10 -16 -5 -3 -10 1 -10 9 0 9 5 16
10 16 6 0 10 -4 10 -9z m-200 -13 c0 -7 -12 -24 -25 -37 -22 -20 -25 -21 -25
-5 0 18 27 54 42 54 4 0 8 -6 8 -12z m50 -13 c0 -8 -9 -20 -20 -27 -11 -7 -20
-18 -20 -25 0 -7 -4 -13 -10 -13 -14 0 -12 16 5 50 16 31 45 41 45 15z m67 -7
c23 -22 31 -58 13 -58 -5 0 -10 6 -10 13 0 7 -9 18 -20 25 -11 7 -20 19 -20
27 0 21 10 19 37 -7z m49 6 c14 -9 23 -24 22 -34 -2 -9 2 -23 9 -31 7 -9 8
-20 3 -29 -7 -11 -12 -9 -29 11 -25 30 -26 39 -3 39 13 1 11 5 -10 23 -43 35
-37 50 8 21z m84 1 c11 -13 9 -20 -5 -12 -2 1 -10 -7 -18 -17 -13 -18 -14 -18
-20 5 -9 35 20 51 43 24z m46 -23 c-14 -14 -16 -14 -16 -1 0 20 23 44 29 28 2
-6 -4 -18 -13 -27z m151 6 c-3 -7 -5 -2 -5 12 0 14 2 19 5 13 2 -7 2 -19 0
-25z m-563 3 c3 -5 -8 -14 -24 -20 -25 -8 -30 -7 -30 6 0 9 6 13 15 10 8 -4
17 -2 20 3 8 12 12 12 19 1z m46 -26 c0 -8 -9 -19 -20 -25 -15 -8 -20 -8 -20
3 0 14 19 37 32 37 4 0 8 -7 8 -15z m201 -68 c-10 -9 -14 -8 -22 5 -19 35 -46
40 -74 16 -14 -12 -25 -28 -25 -35 0 -8 -4 -11 -10 -8 -25 15 5 64 55 91 17 9
25 6 54 -23 27 -27 32 -36 22 -46z m199 74 c0 -12 -20 -25 -27 -18 -7 7 6 27
18 27 5 0 9 -4 9 -9z m-60 -15 c0 -24 -17 -28 -23 -6 -3 13 0 20 9 20 8 0 14
-6 14 -14z m-304 -22 c-3 -9 -6 -20 -6 -25 0 -5 -4 -9 -10 -9 -11 0 -14 33 -3
43 12 13 25 7 19 -9z m274 0 c0 -17 -22 -14 -28 4 -2 7 3 12 12 12 9 0 16 -7
16 -16z m95 -14 c-7 -34 1 -39 21 -12 23 30 17 -12 -8 -55 -39 -68 -58 -107
-58 -119 0 -6 -7 -17 -15 -24 -8 -7 -15 -9 -15 -4 0 17 24 74 32 74 4 0 8 10
8 23 0 13 6 29 13 36 10 10 9 11 -5 6 -14 -6 -18 -2 -18 19 0 14 3 26 6 26 8
0 30 -24 37 -40 4 -10 6 -8 6 7 1 12 -3 25 -9 28 -17 11 -11 65 7 65 3 0 2
-13 -2 -30z m-469 -7 c-10 -10 -19 5 -10 18 6 11 8 11 12 0 2 -7 1 -15 -2 -18z
m329 -53 c-5 -7 -12 -5 -20 7 -7 10 -16 15 -19 12 -4 -3 6 -18 21 -33 17 -18
23 -30 16 -37 -6 -6 -15 -3 -25 8 -17 19 -21 38 -19 86 l1 29 26 -31 c14 -17
22 -35 19 -41z m109 55 c-4 -8 -8 -15 -10 -15 -2 0 -4 7 -4 15 0 8 4 15 10 15
5 0 7 -7 4 -15z m166 1 c0 -8 -4 -18 -10 -21 -5 -3 -10 -11 -10 -17 0 -6 6 -6
15 2 23 19 28 6 6 -14 -16 -15 -19 -15 -31 -1 -11 13 -11 20 0 40 15 28 30 33
30 11z m-199 -9 c-1 -12 -15 -9 -19 4 -3 6 1 10 8 8 6 -3 11 -8 11 -12z m-158
-22 c16 -14 25 -30 22 -35 -9 -14 -25 -12 -25 3 0 7 -10 17 -22 22 -12 6 -23
16 -26 23 -6 20 21 13 51 -13z m-200 -11 c-9 -15 -19 -21 -21 -15 -6 19 6 41
23 41 14 0 13 -3 -2 -26z m326 13 c6 -8 8 -17 4 -20 -7 -8 -33 11 -33 24 0 13
16 11 29 -4z m-378 -30 c-8 -8 -11 -7 -11 4 0 20 13 34 18 19 3 -7 -1 -17 -7
-23z m119 13 c0 -11 -4 -20 -10 -20 -5 0 -10 -7 -10 -15 0 -8 -4 -15 -10 -15
-14 0 -12 38 3 55 17 20 27 18 27 -5z m110 -20 c23 -22 40 -45 38 -51 -2 -6
-22 7 -45 29 l-42 41 -13 -30 c-16 -36 -28 -38 -28 -4 0 14 5 25 10 25 6 0 10
7 10 15 0 26 27 16 70 -25z m300 -6 c-7 -13 -17 -21 -21 -18 -5 3 -1 20 8 37
10 20 18 27 21 19 2 -8 -1 -25 -8 -38z m-111 -2 c0 -24 -1 -25 -9 -7 -12 28
-12 47 0 40 6 -3 10 -18 9 -33z m-44 -30 c-8 -9 -35 20 -28 31 4 6 11 3 19 -8
8 -10 12 -21 9 -23z m-581 -14 c-3 -5 -12 -1 -20 9 -20 27 -17 39 6 18 11 -10
17 -22 14 -27z m770 20 c-8 -28 -12 -33 -20 -25 -9 8 6 47 17 47 6 0 7 -10 3
-22z m-627 -22 c-13 -14 -16 -14 -27 -1 -10 12 -9 15 4 15 9 0 16 5 16 12 0 9
3 9 11 1 9 -9 8 -16 -4 -27z m81 22 c-2 -6 -10 -14 -16 -16 -7 -2 -10 2 -6 12
7 18 28 22 22 4z m39 -28 c1 -22 -2 -40 -6 -40 -4 0 -8 18 -9 40 -1 22 2 40 6
40 4 0 8 -18 9 -40z m-215 2 c15 -25 15 -29 -1 -48 -17 -21 -18 -21 -29 -3
-16 26 -15 28 10 21 21 -5 21 -4 5 19 -9 13 -17 27 -17 31 0 17 16 7 32 -20z
m278 9 c0 -18 -27 -37 -38 -26 -5 4 26 45 35 45 1 0 3 -9 3 -19z m184 7 c7 -7
15 -21 19 -31 6 -16 5 -16 -18 -1 -14 9 -25 23 -25 30 0 17 8 18 24 2z m101 2
c3 -5 1 -10 -4 -10 -6 0 -11 5 -11 10 0 6 2 10 4 10 3 0 8 -4 11 -10z m185
-25 c-6 -8 -9 -19 -5 -25 3 -5 1 -10 -4 -10 -15 0 -14 43 1 58 17 17 24 -4 8
-23z m-400 19 c0 -3 -9 -17 -19 -30 -12 -16 -22 -21 -26 -14 -4 6 1 20 11 30
19 19 34 25 34 14z m52 -26 c-13 -13 -32 -2 -32 18 0 12 4 13 21 3 14 -7 18
-14 11 -21z m258 23 c0 -6 -4 -13 -10 -16 -5 -3 -10 -16 -11 -28 l0 -22 -11
22 c-8 17 -8 26 2 38 14 17 30 20 30 6z m-132 -29 c2 -7 -2 -10 -12 -6 -9 3
-16 11 -16 16 0 13 23 5 28 -10z m-458 -31 c-1 -16 -23 -51 -32 -51 -3 0 -8 9
-11 20 -4 17 -2 20 14 15 20 -7 27 9 9 20 -5 3 -10 13 -10 22 0 13 3 13 15 3
8 -7 15 -20 15 -29z m37 17 c-3 -8 -6 -5 -6 6 -1 11 2 17 5 13 3 -3 4 -12 1
-19z m83 13 c0 -6 -4 -13 -10 -16 -5 -3 -10 1 -10 9 0 9 5 16 10 16 6 0 10 -4
10 -9z m367 -13 c-3 -8 -6 -5 -6 6 -1 11 2 17 5 13 3 -3 4 -12 1 -19z m117
-16 c-7 -32 -24 -45 -24 -17 0 16 22 57 27 51 2 -1 0 -17 -3 -34z m-524 12 c0
-8 -4 -12 -10 -9 -5 3 -10 10 -10 16 0 5 5 9 10 9 6 0 10 -7 10 -16z m122 -12
c-7 -2 -12 -10 -12 -18 0 -9 -4 -12 -10 -9 -6 4 -3 16 7 32 12 17 19 21 22 12
2 -7 -1 -15 -7 -17z m129 -3 c29 -31 38 -59 19 -59 -5 0 -10 9 -10 20 0 11 -7
20 -15 20 -8 0 -15 7 -15 15 0 22 -27 18 -43 -6 -8 -11 -17 -16 -21 -11 -6 10
30 52 45 52 6 0 24 -14 40 -31z m62 1 c9 -16 12 -32 7 -35 -11 -7 -20 8 -26
40 -6 33 1 31 19 -5z m57 -16 c0 -8 -4 -12 -10 -9 -5 3 -10 13 -10 21 0 8 5
12 10 9 6 -3 10 -13 10 -21z m91 -5 c-9 -22 -10 -22 -10 -3 -1 11 2 24 6 27
12 12 14 0 4 -24z m-508 -4 c-12 -32 -23 -14 -14 23 1 2 5 1 11 -3 5 -3 7 -12
3 -20z m78 -8 c-8 -8 -11 -7 -11 4 0 20 13 34 18 19 3 -7 -1 -17 -7 -23z m42
13 c-5 -19 -23 -29 -23 -12 0 7 20 32 26 32 1 0 0 -9 -3 -20z m479 -3 c-7 -8
-9 -17 -5 -20 3 -4 1 -7 -5 -7 -15 0 -15 23 0 38 16 16 24 6 10 -11z m-152 4
c0 -6 -4 -13 -10 -16 -5 -3 -10 1 -10 9 0 9 5 16 10 16 6 0 10 -4 10 -9z
m-400 -71 l1 -25 10 25 c8 18 12 21 18 11 6 -9 11 -10 15 -2 11 17 25 13 52
-14 24 -24 25 -24 44 -5 11 11 20 24 20 30 0 5 9 14 20 20 14 7 20 7 20 0 0
-5 -4 -10 -10 -10 -5 0 -10 -7 -10 -15 0 -8 -4 -15 -8 -15 -4 0 -9 -35 -10
-77 -1 -43 -5 -90 -8 -105 -11 -52 -24 -28 -24 43 0 49 -3 68 -11 63 -10 -6
-8 -63 5 -154 6 -38 8 -73 7 -90 -1 -13 -2 -13 -11 0 -7 11 -10 11 -10 2 0 -7
-4 -11 -9 -8 -4 3 -13 -6 -19 -19 -9 -20 -9 -23 3 -18 8 3 15 9 15 14 0 20 18
7 24 -17 9 -34 -19 -70 -39 -51 -6 7 -14 19 -18 27 -4 10 -6 8 -6 -7 -1 -12 2
-23 7 -26 4 -2 1 -2 -5 -1 -7 2 -13 -1 -13 -6 0 -6 4 -10 10 -10 5 0 7 -7 4
-15 -12 -31 -21 -13 -20 38 1 33 7 57 16 65 13 10 13 11 -2 6 -10 -3 -18 -1
-18 5 0 6 5 11 10 11 14 0 11 137 -4 230 -12 72 -13 74 -23 45 l-11 -30 -2 30
c-1 17 -4 24 -7 16 -3 -7 0 -37 6 -66 10 -43 9 -60 -3 -96 -9 -24 -16 -60 -17
-79 -1 -32 -2 -33 -9 -10 l-7 25 -8 -30 c-4 -16 -14 -46 -23 -65 -9 -19 -17
-39 -17 -45 0 -15 -59 -39 -63 -25 -2 5 -7 8 -12 5 -12 -8 -33 23 -26 40 4 10
14 13 36 9 29 -6 60 8 60 27 0 11 -23 7 -33 -6 -11 -15 1 133 13 155 13 24 13
143 0 135 -5 -3 -7 -19 -4 -34 3 -16 1 -31 -4 -35 -12 -7 -27 89 -20 120 4 17
6 16 16 -6 6 -15 11 -19 11 -9 1 9 18 34 39 56 36 39 37 39 49 19 7 -12 13
-32 13 -46z m140 63 c-1 -5 -7 -19 -15 -33 -10 -18 -14 -20 -15 -8 0 23 11 48
21 48 5 0 9 -3 9 -7z m-270 -39 c0 -8 -4 -14 -10 -14 -5 0 -10 9 -10 21 0 11
5 17 10 14 6 -3 10 -13 10 -21z m380 0 c14 -35 13 -36 -10 -17 -21 19 -27 43
-10 43 6 0 15 -12 20 -26z m231 -156 l1 -93 10 60 c5 33 7 75 4 93 -5 33 7 44
18 16 9 -24 7 -75 -5 -137 -10 -46 -9 -63 5 -102 17 -52 11 -80 -11 -50 -11
16 -13 16 -13 3 0 -9 11 -23 25 -32 14 -9 25 -21 25 -28 0 -6 8 -17 18 -25 16
-13 16 -13 -3 -11 -11 2 -23 12 -27 23 -6 19 -6 18 -7 -2 -1 -13 -7 -23 -15
-23 -17 0 -66 84 -66 113 0 11 -11 43 -25 72 -23 49 -24 58 -16 149 4 53 6
109 3 124 -5 26 -3 25 37 -15 l41 -41 1 -94z m-121 141 c0 -15 5 -19 15 -15
12 4 15 -3 15 -37 0 -61 -18 -159 -31 -171 -9 -8 -10 0 -5 32 17 119 17 128
-4 57 -20 -67 -20 -73 -5 -127 8 -31 13 -68 10 -81 -5 -17 -2 -28 8 -34 14 -8
21 -25 18 -48 0 -6 -10 -11 -22 -12 -16 -2 -18 1 -9 12 8 9 8 20 2 31 -7 12
-11 13 -17 4 -4 -7 -2 -16 6 -21 10 -6 11 -9 2 -9 -7 0 -13 -8 -14 -17 0 -15
-2 -15 -9 2 -6 13 -9 15 -9 5 -1 -13 -3 -13 -10 -1 -7 11 -10 10 -14 -5 -3
-10 -4 19 -2 66 3 58 1 74 -4 50 -5 -20 -9 -27 -10 -15 l-2 20 -12 -20 c-7
-11 -12 -40 -12 -65 0 -43 -1 -45 -32 -48 -28 -3 -33 0 -40 25 -4 15 -6 64 -5
108 0 44 1 117 1 163 0 87 1 88 55 83 13 -1 17 4 14 17 -4 13 1 18 18 20 19 1
23 -4 27 -31 3 -27 4 -26 5 11 1 23 7 42 13 42 5 0 7 5 3 12 -4 6 -3 8 4 4 6
-3 13 -2 17 4 11 18 35 11 35 -11z m100 11 c0 -5 -5 -10 -11 -10 -5 0 -7 5 -4
10 3 6 8 10 11 10 2 0 4 -4 4 -10z m63 -20 c-6 -22 -15 -19 -19 5 -1 8 4 15
11 15 8 0 11 -7 8 -20z m-303 1 c0 -6 -4 -13 -10 -16 -5 -3 -10 1 -10 9 0 9 5
16 10 16 6 0 10 -4 10 -9z m-180 -201 c0 -5 -4 -10 -10 -10 -5 0 -10 5 -10 10
0 6 5 10 10 10 6 0 10 -4 10 -10z m0 -89 c0 -35 -22 -72 -35 -59 -9 8 18 108
27 102 4 -3 8 -22 8 -43z m354 33 c3 -9 6 -33 6 -55 0 -28 -4 -39 -15 -39 -12
0 -15 13 -15 55 0 53 11 72 24 39z m-384 -116 c0 6 5 12 11 12 8 0 8 -4 0 -14
-13 -15 -5 -66 10 -66 6 0 5 -8 -1 -19 -7 -14 -6 -23 4 -33 11 -11 11 -25 1
-73 -9 -49 -15 -61 -33 -63 -34 -5 -27 -42 13 -81 19 -18 35 -39 35 -47 0 -21
-14 -17 -25 9 -6 12 -14 20 -19 19 -5 -2 -12 2 -16 9 -10 15 -80 40 -92 33 -5
-3 -15 -1 -22 5 -10 9 -22 6 -49 -11 -36 -23 -46 -42 -27 -53 6 -3 10 -11 10
-17 0 -7 -6 -6 -15 2 -19 16 -19 56 0 64 20 7 9 32 -15 32 -11 0 -20 -4 -20
-8 0 -4 8 -8 17 -8 13 0 14 -3 5 -12 -7 -7 -12 -25 -12 -42 0 -18 -4 -26 -9
-20 -5 5 -11 59 -13 121 -2 88 0 109 10 101 6 -6 12 -18 12 -27 0 -9 9 -22 20
-29 18 -11 20 -10 20 10 0 17 -3 19 -9 9 -5 -7 -11 -9 -14 -4 -8 13 11 83 23
83 5 0 10 8 12 18 4 20 -21 52 -41 52 -12 0 -12 2 1 13 9 6 18 19 22 27 3 8 4
3 1 -12 -4 -20 -1 -28 9 -28 7 0 16 -9 19 -21 3 -12 10 -18 16 -14 6 3 11 -1
11 -9 0 -10 -6 -13 -15 -10 -20 8 -19 -1 3 -23 11 -10 25 -39 32 -65 12 -46
14 -48 51 -50 22 -1 47 -2 57 -2 12 -1 17 7 18 29 0 17 6 41 14 55 12 23 12
24 -3 11 -10 -7 -20 -31 -23 -51 -6 -37 -7 -38 -37 -29 -16 5 -34 6 -38 3 -10
-6 -39 60 -39 87 0 13 8 19 23 20 12 1 27 2 32 4 6 1 16 3 23 3 6 1 12 8 12
16 0 8 7 16 15 20 18 7 20 -5 3 -22 -9 -9 -8 -12 6 -12 9 0 15 4 11 9 -3 5 -1
12 4 15 11 7 2 46 -10 46 -5 0 -6 8 -2 18 6 15 4 15 -15 -2 -15 -13 -22 -15
-22 -6 0 20 33 41 42 27 6 -9 8 -9 8 1z m404 -24 c10 -37 2 -39 -11 -4 -6 17
-8 30 -3 30 4 0 11 -12 14 -26z m186 11 c0 -8 10 -21 22 -29 22 -16 22 -16 3
-33 -12 -12 -15 -12 -9 -3 8 11 4 21 -13 39 -20 21 -23 22 -23 6 0 -14 -3 -15
-15 -5 -23 19 -18 35 10 36 15 1 25 -4 25 -11z m-450 -19 c0 -3 -4 -8 -10 -11
-5 -3 -10 -1 -10 4 0 6 5 11 10 11 6 0 10 -2 10 -4z m-346 -58 c6 -4 7 -10 4
-14 -11 -10 -35 19 -30 36 5 13 6 13 10 0 3 -8 10 -18 16 -22z m316 10 c0 -4
-4 -10 -10 -13 -5 -3 -10 0 -10 7 0 10 -3 9 -10 -2 -5 -8 -12 -11 -15 -8 -12
11 4 27 25 25 11 -1 20 -5 20 -9z m-236 -13 c-4 -8 -8 -15 -10 -15 -2 0 -4 7
-4 15 0 8 4 15 10 15 5 0 7 -7 4 -15z m28 -7 c-7 -7 -12 -8 -12 -2 0 14 12 26
19 19 2 -3 -1 -11 -7 -17z m43 12 c-3 -5 -11 -10 -16 -10 -6 0 -7 5 -4 10 3 6
11 10 16 10 6 0 7 -4 4 -10z m350 -19 c70 -41 97 -155 52 -222 -36 -53 -82
-79 -142 -79 -149 0 -219 175 -112 280 17 17 45 35 62 40 39 12 102 4 140 -19z
m43 11 c6 -18 -15 -14 -22 4 -4 10 -1 14 6 12 6 -2 14 -10 16 -16z m30 0 c6
-18 -15 -14 -22 4 -4 10 -1 14 6 12 6 -2 14 -10 16 -16z m32 -3 c0 -6 -4 -7
-10 -4 -5 3 -10 11 -10 16 0 6 5 7 10 4 6 -3 10 -11 10 -16z m30 5 c0 -8 -4
-12 -10 -9 -5 3 -10 10 -10 16 0 5 5 9 10 9 6 0 10 -7 10 -16z m35 5 c11 -17
-1 -21 -15 -4 -8 9 -8 15 -2 15 6 0 14 -5 17 -11z m35 -10 c0 -5 -4 -9 -10 -9
-5 0 -10 7 -10 16 0 8 5 12 10 9 6 -3 10 -10 10 -16z m30 -10 c0 -6 -4 -7 -10
-4 -5 3 -10 11 -10 16 0 6 5 7 10 4 6 -3 10 -11 10 -16z m30 6 c0 -8 -2 -15
-4 -15 -2 0 -6 7 -10 15 -3 8 -1 15 4 15 6 0 10 -7 10 -15z m30 -6 c0 -6 -4
-7 -10 -4 -5 3 -10 11 -10 16 0 6 5 7 10 4 6 -3 10 -11 10 -16z m-190 -37 c0
-13 4 -21 10 -17 6 4 8 15 5 26 -5 15 -1 19 14 19 12 0 21 -5 21 -11 0 -5 -5
-7 -12 -3 -7 5 -8 3 -3 -6 6 -10 11 -9 22 5 10 14 13 15 14 4 0 -8 2 -23 4
-34 2 -11 -3 -28 -12 -37 -9 -10 -11 -18 -6 -18 6 0 16 7 23 15 22 27 42 19
35 -15 -6 -29 -5 -30 29 -30 51 0 64 -28 38 -79 -13 -25 -17 -43 -11 -52 6
-11 9 -8 9 9 0 14 4 21 11 17 5 -4 9 -14 7 -23 -2 -13 -16 -17 -56 -18 -33 -1
-52 2 -51 10 1 23 15 41 33 44 11 2 15 -1 11 -7 -3 -6 -1 -11 4 -11 6 0 11 2
11 4 0 2 3 11 6 20 5 13 -1 16 -25 16 -28 0 -31 2 -21 19 15 28 12 39 -4 16
-7 -11 -16 -41 -20 -67 -8 -56 -26 -74 -26 -26 1 55 -2 67 -18 60 -11 -4 -13
-1 -7 8 5 8 4 11 -3 6 -7 -4 -10 9 -10 36 1 53 -9 78 -28 71 -9 -3 -14 2 -14
14 0 10 -7 29 -16 41 -14 21 -14 22 10 20 20 -2 26 -8 26 -26z m158 -5 c18
-12 16 -87 -3 -87 -9 0 -15 9 -15 25 0 14 -3 25 -7 25 -15 1 -40 26 -47 46 -6
21 -5 21 26 10 18 -6 39 -15 46 -19z m-841 -9 c-3 -8 -6 -5 -6 6 -1 11 2 17 5
13 3 -3 4 -12 1 -19z m918 2 c3 6 10 8 15 5 12 -8 20 -126 11 -170 -8 -38 -9
-38 -11 -10 l-3 30 -7 -35 -7 -35 -3 45 -3 45 -7 -40 c-7 -37 -7 -37 -9 -9 0
17 -4 67 -8 110 -6 71 -5 78 9 66 11 -9 18 -10 23 -2z m-908 -72 c-2 -13 -4
-5 -4 17 -1 22 1 32 4 23 2 -10 2 -28 0 -40z m687 -86 c4 -7 14 -12 22 -12 20
0 17 -31 -6 -60 -16 -20 -22 -22 -29 -11 -5 7 -11 9 -14 4 -7 -12 -67 -16 -67
-4 0 5 7 15 17 22 21 18 52 86 54 119 1 19 3 17 8 -10 4 -20 11 -41 15 -48z
m-704 52 c0 -2 -7 -4 -15 -4 -8 0 -15 4 -15 10 0 5 7 7 15 4 8 -4 15 -8 15
-10z m17 -31 c-3 -10 -5 -4 -5 12 0 17 2 24 5 18 2 -7 2 -21 0 -30z m297 3 c3
-14 12 -31 19 -38 24 -25 47 -68 37 -68 -5 0 -10 -4 -10 -9 0 -5 7 -8 16 -7 9
0 19 -5 22 -13 3 -8 -1 -12 -9 -9 -8 3 -20 -2 -27 -11 -7 -9 -12 -11 -11 -6 1
6 1 17 0 25 -1 13 -2 13 -11 0 -5 -8 -13 -11 -17 -6 -4 4 1 14 12 22 16 12 18
17 7 32 -7 9 -15 25 -18 34 -4 10 -14 20 -24 23 -18 6 -33 39 -22 49 13 13 30
4 36 -18z m-317 -8 c-3 -8 -6 -5 -6 6 -1 11 2 17 5 13 3 -3 4 -12 1 -19z m158
-28 c3 -5 19 -10 35 -10 16 0 32 -4 35 -10 3 -5 15 -10 26 -10 10 0 19 -6 19
-12 0 -9 3 -8 10 2 8 12 10 12 16 -3 4 -10 2 -23 -5 -30 -6 -6 -11 -7 -11 -1
0 5 -34 10 -75 10 -41 1 -75 -3 -75 -8 0 -5 5 -6 10 -3 6 3 10 2 10 -4 0 -5
-9 -9 -19 -8 -11 0 -17 5 -14 10 2 4 -6 17 -19 29 -13 12 -18 22 -12 25 6 2
20 10 30 18 23 17 31 18 39 5z m17 -92 c-7 -7 -12 -8 -12 -2 0 14 12 26 19 19
2 -3 -1 -11 -7 -17z m33 2 c3 -5 1 -10 -4 -10 -6 0 -11 5 -11 10 0 6 2 10 4
10 3 0 8 -4 11 -10z m75 -2 c0 -4 -9 -8 -20 -8 -11 0 -20 4 -20 9 0 6 9 9 20
8 11 -1 20 -5 20 -9z m34 -3 c-6 -16 -24 -21 -24 -7 0 11 11 22 21 22 5 0 6
-7 3 -15z m178 -19 c5 -8 8 -7 8 2 0 6 5 12 11 12 6 0 8 -7 5 -16 -3 -8 -2
-12 4 -9 6 3 10 1 10 -4 0 -6 -16 -11 -36 -11 -28 0 -35 3 -30 15 7 20 -4 19
-21 -2 -14 -17 -14 -17 -9 -1 3 10 2 17 -2 17 -16 -3 -23 2 -17 11 7 12 67 1
77 -14z m96 -4 c-2 -14 3 -27 10 -29 6 -3 10 1 9 9 -2 7 -2 10 0 5 3 -4 10 -4
15 -1 7 4 8 2 4 -4 -5 -8 0 -12 13 -12 12 0 21 -4 21 -10 0 -5 -18 -9 -40 -8
-39 1 -44 6 -43 46 1 6 -9 12 -21 11 -11 0 -15 -3 -8 -6 14 -5 16 -23 3 -23
-11 0 -23 29 -16 40 2 4 16 8 30 8 21 0 25 -5 23 -26z m27 18 c3 -5 1 -10 -4
-10 -6 0 -11 5 -11 10 0 6 2 10 4 10 3 0 8 -4 11 -10z m82 -7 c2 -6 -1 -15 -8
-19 -8 -4 -9 -3 -5 4 4 7 3 12 -3 12 -5 0 -12 -8 -14 -17 -4 -14 -5 -13 -6 4
-1 16 -6 21 -16 17 -8 -4 -15 -2 -15 4 0 13 63 9 67 -5z m33 7 c0 -5 -4 -10
-10 -10 -5 0 -10 5 -10 10 0 6 5 10 10 10 6 0 10 -4 10 -10z m50 0 c0 -5 -2
-10 -4 -10 -3 0 -8 5 -11 10 -3 6 -1 10 4 10 6 0 11 -4 11 -10z m-431 -62 c1
-5 -3 -8 -9 -8 -5 0 -10 12 -9 28 0 24 1 25 9 7 5 -11 9 -23 9 -27z m39 17 c0
-15 -6 -25 -14 -25 -15 0 -17 10 -8 34 9 24 22 19 22 -9z m32 15 c0 -5 -4 -10
-10 -10 -5 0 -10 5 -10 10 0 6 5 10 10 10 6 0 10 -4 10 -10z m-140 -26 c0 -8
-5 -12 -10 -9 -6 4 -8 11 -5 16 9 14 15 11 15 -7z m40 -5 c0 -5 -4 -9 -10 -9
-5 0 -10 7 -10 16 0 8 5 12 10 9 6 -3 10 -10 10 -16z m396 -6 c-10 -10 -19 5
-10 18 6 11 8 11 12 0 2 -7 1 -15 -2 -18z m-466 7 c0 -5 -4 -10 -10 -10 -5 0
-10 5 -10 10 0 6 5 10 10 10 6 0 10 -4 10 -10z m200 1 c0 -5 -11 -8 -25 -8
-14 0 -25 3 -25 8 0 5 11 9 25 9 14 0 25 -4 25 -9z m120 1 c0 -5 -25 -9 -55
-9 -30 0 -55 4 -55 9 0 4 25 8 55 8 30 0 55 -4 55 -8z m120 -2 c0 -5 -4 -10
-10 -10 -5 0 -10 5 -10 10 0 6 5 10 10 10 6 0 10 -4 10 -10z m80 0 c0 -5 -4
-10 -10 -10 -5 0 -10 5 -10 10 0 6 5 10 10 10 6 0 10 -4 10 -10z"/>
<path d="M1360 3260 c-13 -8 -12 -10 3 -10 9 0 17 5 17 10 0 12 -1 12 -20 0z"/>
<path d="M1210 3249 c0 -6 -7 -9 -15 -5 -8 3 -15 1 -15 -3 0 -10 -26 -9 -36 1
-9 10 -35 -3 -28 -13 3 -5 10 -7 15 -4 14 9 10 -7 -6 -29 -17 -22 -20 -46 -6
-46 5 0 11 12 13 28 2 22 11 29 46 40 23 8 42 20 42 28 0 8 -2 14 -5 14 -3 0
-5 -5 -5 -11z"/>
<path d="M1387 3243 c-4 -3 -1 -13 6 -21 10 -13 8 -14 -12 -7 l-24 7 19 -25
c24 -32 36 -25 29 16 -7 36 -9 40 -18 30z"/>
<path d="M1168 3189 c-10 -5 -18 -17 -18 -25 0 -12 4 -13 21 -4 15 9 24 8 35
-1 19 -16 -1 -31 -31 -23 -14 4 -16 3 -7 -4 12 -8 11 -15 -2 -40 -9 -17 -13
-39 -9 -48 4 -11 2 -15 -4 -11 -6 4 -8 -3 -5 -19 5 -28 43 -55 50 -35 3 9 10
7 24 -6 20 -18 20 -17 14 5 -9 27 13 39 44 22 26 -14 22 -32 -11 -41 -21 -6
-22 -7 -3 -8 11 -1 29 8 39 19 10 12 24 19 32 16 7 -3 22 7 34 22 11 15 24 27
27 27 6 -1 31 60 32 76 0 3 -7 14 -15 25 -14 18 -14 18 -8 -3 6 -25 -18 -56
-39 -48 -7 3 -19 -5 -27 -17 -10 -18 -10 -20 0 -10 18 17 34 15 19 -3 -7 -8
-24 -15 -39 -15 -21 0 -23 2 -11 11 12 9 12 10 -3 5 -10 -3 -22 -6 -25 -6 -4
0 0 -5 8 -10 23 -15 66 -12 80 5 14 17 30 20 30 5 0 -5 -6 -10 -14 -10 -7 0
-19 -7 -26 -15 -17 -21 -53 -19 -76 4 -18 18 -20 18 -39 1 -32 -29 -62 -34
-67 -12 -4 15 -1 18 12 15 26 -7 60 14 54 32 -4 11 -2 13 9 9 21 -8 57 13 57
33 0 13 3 14 12 5 8 -8 8 -15 -2 -27 -9 -11 -10 -15 0 -15 6 0 14 9 17 20 3
11 10 17 16 13 6 -4 7 -1 2 7 -4 7 -2 16 6 21 9 6 2 7 -18 3 -39 -8 -56 17
-30 44 14 13 21 14 43 3 24 -11 26 -10 14 3 -31 39 -102 -3 -78 -47 7 -15 7
-22 -3 -28 -28 -17 -54 0 -45 29 15 47 -31 78 -76 51z m52 -14 c9 -10 9 -15 1
-15 -6 0 -11 4 -11 9 0 5 -8 12 -17 14 -15 4 -15 5 -2 6 9 0 22 -6 29 -14z m0
-75 c0 -30 -3 -35 -22 -34 -10 0 -18 -3 -18 -8 0 -5 -5 -6 -10 -3 -6 4 -4 13
7 23 12 12 18 13 21 4 2 -6 9 -12 15 -12 8 0 7 4 -1 12 -15 15 -16 38 -2 38 6
0 10 -9 10 -20z"/>
<path d="M1319 3163 c-12 -15 -12 -16 4 -10 10 4 23 7 28 7 6 0 7 5 4 10 -9
15 -21 12 -36 -7z"/>
<path d="M952 2908 c3 -7 13 -15 22 -16 12 -3 17 1 14 10 -3 7 -13 15 -22 16
-12 3 -17 -1 -14 -10z"/>
<path d="M1140 2051 c0 -6 5 -13 10 -16 6 -3 10 1 10 9 0 9 -4 16 -10 16 -5 0
-10 -4 -10 -9z"/>
<path d="M895 2040 c-3 -5 -1 -10 4 -10 6 0 11 5 11 10 0 6 -2 10 -4 10 -3 0
-8 -4 -11 -10z"/>
<path d="M1295 2290 c2 -41 8 -93 12 -115 9 -39 9 -39 22 45 8 47 11 94 8 105
-3 12 -5 5 -6 -17 -1 -50 -19 -57 -26 -11 -12 70 -14 68 -10 -7z"/>
<path d="M1342 2205 c0 -16 2 -22 5 -12 2 9 2 23 0 30 -3 6 -5 -1 -5 -18z"/>
<path d="M1359 2098 c2 -32 6 -46 11 -37 5 7 6 27 3 44 -10 51 -18 47 -14 -7z"/>
<path d="M840 1810 c-12 -23 2 -27 19 -6 8 9 8 16 2 20 -6 4 -15 -3 -21 -14z"/>
<path d="M1179 1946 c-78 -53 -86 -164 -16 -234 28 -28 45 -36 85 -40 132 -12
217 133 141 240 -45 62 -144 78 -210 34z m162 -7 c35 -18 59 -70 59 -126 0
-29 -4 -53 -8 -53 -5 0 -15 -11 -22 -25 -7 -14 -19 -25 -26 -25 -7 0 -14 -4
-16 -10 -1 -5 -21 -11 -43 -14 -30 -4 -51 1 -86 21 -39 21 -49 32 -59 67 -17
61 -5 115 34 149 11 10 26 15 33 12 8 -2 12 -1 8 4 -13 23 84 23 126 0z"/>
<path d="M1242 1848 c-5 -7 -10 -24 -9 -38 2 -22 6 -25 30 -22 29 5 50 31 39
49 -12 18 -48 24 -60 11z m44 -37 c-4 -6 -15 -10 -24 -10 -15 1 -14 2 1 6 12
3 16 10 12 21 -5 13 -3 14 6 5 6 -6 8 -16 5 -22z"/>
<path d="M1490 1895 c0 -8 7 -15 15 -15 9 0 12 6 9 15 -4 8 -10 15 -15 15 -5
0 -9 -7 -9 -15z"/>
<path d="M1702 1795 c0 -16 2 -22 5 -12 2 9 2 23 0 30 -3 6 -5 -1 -5 -18z"/>
<path d="M2172 3159 c-51 -25 -99 -80 -112 -129 -6 -20 -10 -186 -10 -377 l0
-343 135 0 135 0 0 435 0 435 -52 0 c-34 0 -69 -8 -96 -21z"/>
<path d="M2430 2795 l0 -385 130 0 130 0 0 385 0 385 -130 0 -130 0 0 -385z"/>
<path d="M2810 2745 l0 -435 135 0 135 0 0 343 c0 191 -4 357 -10 377 -13 49
-66 109 -114 131 -23 10 -64 19 -93 19 l-53 0 0 -435z"/>
<path d="M4584 3166 c-44 -20 -99 -71 -118 -110 -14 -29 -16 -83 -16 -390 l0
-356 135 0 135 0 0 435 0 435 -52 0 c-29 -1 -67 -7 -84 -14z"/>
<path d="M4826 3172 c-2 -4 -4 -176 -3 -382 l2 -375 133 -3 132 -3 0 386 0
385 -129 0 c-72 0 -132 -3 -135 -8z"/>
<path d="M5210 2745 l0 -435 129 0 130 0 3 338 c2 185 0 354 -3 375 -14 83
-110 156 -206 157 l-53 0 0 -435z"/>
<path d="M3335 3147 c-57 -32 -95 -91 -98 -152 l-2 -50 553 -3 552 -2 0 115 0
115 -482 0 c-482 0 -483 0 -523 -23z"/>
<path d="M5690 3141 c-58 -39 -90 -93 -90 -153 l0 -48 520 0 520 0 0 115 0
115 -453 0 -454 0 -43 -29z"/>
<path d="M3220 2806 c0 -67 44 -136 111 -173 32 -17 69 -18 513 -21 l478 -3
-4 59 c-5 67 -26 101 -90 145 l-41 27 -484 0 -483 0 0 -34z"/>
<path d="M5600 2735 l0 -105 385 0 385 0 0 105 0 105 -385 0 -385 0 0 -105z"/>
<path d="M5600 2475 c0 -53 16 -88 57 -127 60 -58 63 -58 538 -58 l435 0 0
115 0 115 -515 0 -515 0 0 -45z"/>
<path d="M3222 2398 l3 -113 459 -3 c312 -1 471 1 499 9 56 15 121 81 137 137
22 84 73 77 -548 80 l-553 2 3 -112z"/>
<path d="M2050 2215 l0 -25 2295 0 2295 0 0 25 0 25 -2295 0 -2295 0 0 -25z"/>
<path d="M2280 2020 c0 -79 17 -96 22 -22 l4 47 13 -48 c17 -62 41 -60 56 3
l10 45 3 -47 c2 -34 7 -48 18 -48 11 0 14 16 14 70 0 66 -1 70 -23 70 -19 0
-25 -9 -36 -47 l-14 -48 -14 48 c-11 35 -19 47 -34 47 -17 0 -19 -7 -19 -70z"/>
<path d="M2450 2020 c0 -56 3 -70 15 -70 12 0 15 14 15 70 0 56 -3 70 -15 70
-12 0 -15 -14 -15 -70z"/>
<path d="M2534 2082 c-16 -10 -34 -48 -34 -70 0 -35 33 -65 71 -64 37 1 69 30
47 43 -7 5 -16 2 -21 -6 -4 -8 -19 -15 -32 -15 -18 0 -26 7 -31 26 -13 51 31
95 63 63 6 -6 17 -9 23 -7 9 3 8 9 -4 21 -18 17 -62 23 -82 9z"/>
<path d="M2660 2020 c0 -40 4 -70 10 -70 6 0 11 6 11 13 1 6 2 18 3 26 2 26
24 22 47 -8 13 -17 29 -31 36 -31 17 0 16 15 -2 30 -8 7 -15 17 -15 22 0 5 7
16 15 24 19 19 19 29 -1 48 -9 10 -33 16 -60 16 l-44 0 0 -70z m85 30 c0 -18
-43 -26 -57 -12 -16 16 2 33 30 30 16 -2 27 -9 27 -18z"/>
<path d="M2834 2082 c-35 -23 -40 -96 -9 -122 23 -19 87 -15 102 6 19 26 16
88 -5 107 -19 17 -68 22 -88 9z m76 -37 c14 -36 -3 -75 -33 -75 -28 0 -47 17
-47 43 0 56 62 81 80 32z"/>
<path d="M3097 2083 c-4 -3 -7 -17 -7 -30 0 -19 9 -28 40 -40 42 -17 54 -43
20 -43 -11 0 -29 5 -40 12 -25 16 -38 2 -17 -19 20 -21 73 -21 94 -1 23 24 8
54 -39 73 -30 12 -38 19 -30 27 9 9 18 8 37 -2 29 -16 43 -7 25 15 -12 15 -71
21 -83 8z"/>
<path d="M3228 2040 c-1 -27 -2 -57 -2 -67 -1 -9 5 -18 12 -20 8 -3 12 8 12
37 0 48 15 46 24 -5 4 -20 13 -35 20 -35 15 0 36 49 36 82 0 11 4 17 9 14 5
-3 8 -26 7 -51 -1 -31 2 -45 11 -45 9 0 13 19 13 70 0 66 -1 70 -23 70 -19 0
-25 -9 -36 -47 l-14 -48 -14 48 c-11 35 -19 47 -34 47 -16 0 -19 -8 -21 -50z"/>
<path d="M3416 2025 c-31 -77 -30 -75 -11 -75 8 0 15 7 15 15 0 21 59 20 75
-1 6 -9 17 -15 23 -13 15 6 -41 133 -60 137 -11 2 -24 -17 -42 -63z m64 -17
c0 -4 -9 -8 -20 -8 -21 0 -24 8 -13 36 6 16 7 16 20 -2 7 -10 13 -21 13 -26z"/>
<path d="M3550 2020 l0 -70 50 0 c28 0 50 5 50 10 0 6 -16 10 -35 10 l-35 0 0
60 c0 47 -3 60 -15 60 -12 0 -15 -14 -15 -70z"/>
<path d="M3680 2021 l0 -71 50 0 c58 0 68 17 13 22 l-38 3 -1 54 c-1 32 -6 57
-12 59 -8 2 -12 -18 -12 -67z"/>
<path d="M3875 2080 c-3 -5 -3 -20 0 -33 4 -15 1 -28 -9 -36 -23 -19 -20 -38
9 -57 16 -10 32 -13 47 -8 13 4 32 7 42 5 14 -2 17 2 12 14 -3 9 -6 23 -6 32
0 9 -6 13 -15 10 -20 -8 -28 9 -14 31 18 29 4 52 -30 52 -16 0 -32 -4 -36 -10z
m55 -20 c0 -5 -7 -10 -15 -10 -8 0 -15 5 -15 10 0 6 7 10 15 10 8 0 15 -4 15
-10z m-12 -70 c11 -18 10 -20 -13 -20 -24 0 -34 18 -18 33 10 11 17 8 31 -13z"/>
<path d="M4070 2020 c0 -40 4 -70 10 -70 6 0 10 21 10 46 0 54 15 51 24 -6 8
-54 35 -51 52 5 l12 40 1 -42 c1 -31 5 -43 16 -43 12 0 15 14 15 70 0 66 -1
70 -23 70 -19 0 -25 -8 -36 -47 l-13 -48 -14 48 c-11 35 -19 47 -34 47 -18 0
-20 -7 -20 -70z"/>
<path d="M4240 2020 l0 -70 55 0 c30 0 55 5 55 10 0 6 -18 10 -40 10 -33 0
-40 3 -40 20 0 16 7 20 35 20 19 0 35 5 35 10 0 6 -16 10 -35 10 -28 0 -35 4
-35 20 0 17 7 20 40 20 22 0 40 5 40 10 0 6 -25 10 -55 10 l-55 0 0 -70z"/>
<path d="M4380 2023 c0 -38 -3 -79 -7 -92 -5 -19 -2 -22 13 -19 11 2 18 11 16
21 -2 13 5 17 32 17 45 0 66 22 66 70 0 47 -27 70 -82 70 l-38 0 0 -67z m78
38 c8 -5 12 -23 10 -47 -3 -34 -6 -39 -30 -42 -27 -3 -28 -2 -28 47 0 42 3 51
18 51 9 0 23 -4 30 -9z"/>
<path d="M4530 2020 c0 -56 3 -70 15 -70 12 0 15 14 15 70 0 56 -3 70 -15 70
-12 0 -15 -14 -15 -70z"/>
<path d="M4590 2030 c0 -52 3 -62 25 -76 18 -12 31 -14 52 -7 24 8 29 17 37
61 9 52 4 82 -13 82 -6 0 -11 -26 -13 -57 -3 -55 -4 -58 -30 -61 -28 -3 -28
-3 -28 57 0 48 -3 61 -15 61 -12 0 -15 -13 -15 -60z"/>
<path d="M4740 2020 c0 -40 4 -70 10 -70 10 0 14 18 10 58 -3 39 18 24 25 -18
10 -57 38 -55 52 3 l11 42 1 -42 c1 -31 5 -43 16 -43 12 0 15 15 15 71 0 67
-1 70 -22 67 -13 -2 -24 -11 -27 -23 -2 -11 -8 -31 -13 -45 -10 -24 -11 -23
-24 23 -11 35 -19 47 -34 47 -18 0 -20 -7 -20 -70z"/>
<path d="M4970 2020 l0 -70 55 0 c30 0 55 5 55 10 0 6 -18 10 -40 10 -33 0
-40 3 -40 20 0 16 7 20 35 20 19 0 35 5 35 10 0 6 -16 10 -35 10 -28 0 -35 4
-35 20 0 17 7 20 40 20 22 0 40 5 40 10 0 6 -25 10 -55 10 l-55 0 0 -70z"/>
<path d="M5110 2020 c0 -54 3 -70 14 -70 10 0 16 14 18 43 l3 42 24 -42 c15
-26 32 -43 43 -43 16 0 18 9 18 70 0 56 -3 70 -15 70 -11 0 -15 -12 -15 -47
l0 -48 -31 48 c-45 68 -59 63 -59 -23z"/>
<path d="M5250 2080 c0 -5 9 -10 20 -10 18 0 20 -7 20 -60 0 -47 3 -60 15 -60
12 0 15 13 15 60 0 53 2 60 20 60 11 0 20 5 20 10 0 6 -25 10 -55 10 -30 0
-55 -4 -55 -10z"/>
<path d="M5390 2020 l0 -70 56 0 c34 0 53 4 49 10 -3 6 -24 10 -46 10 -33 0
-40 3 -37 18 2 12 14 18 41 20 46 4 49 22 3 22 -20 0 -36 6 -39 14 -8 20 2 26
45 26 21 0 38 5 38 10 0 6 -25 10 -55 10 l-55 0 0 -70z"/>
<path d="M5530 2020 c0 -49 4 -70 13 -70 6 0 13 12 13 26 3 40 14 42 43 7 35
-42 59 -45 35 -4 -16 27 -16 30 -1 46 21 20 21 29 1 49 -9 10 -33 16 -60 16
l-44 0 0 -70z m85 30 c0 -19 -45 -26 -56 -9 -12 20 0 30 29 27 16 -2 27 -9 27
-18z"/>
<path d="M5680 2020 c0 -40 4 -70 10 -70 6 0 10 11 10 25 0 21 5 25 29 25 49
0 79 48 49 78 -7 7 -31 12 -55 12 l-43 0 0 -70z m78 28 c4 -19 -35 -35 -50
-20 -6 6 -8 18 -4 27 8 21 50 16 54 -7z"/>
<path d="M5820 2020 c0 -40 4 -70 10 -70 6 0 10 11 10 24 0 38 18 41 47 7 26
-30 53 -41 53 -22 0 5 -7 14 -15 21 -16 14 -20 40 -6 40 15 0 21 30 11 51 -8
15 -22 19 -60 19 l-50 0 0 -70z m79 41 c21 -13 4 -31 -30 -31 -27 0 -39 17
-22 33 9 10 35 8 52 -2z"/>
<path d="M5968 2030 c-3 -66 -1 -80 13 -80 5 0 9 32 9 70 0 86 -17 93 -22 10z"/>
<path d="M6030 2071 c-15 -29 -3 -47 41 -60 23 -7 39 -17 36 -24 -5 -15 -57
-22 -57 -8 0 6 -7 11 -15 11 -22 0 -18 -17 7 -34 29 -21 51 -20 78 2 32 26 19
55 -32 76 -32 12 -39 19 -30 28 9 9 17 8 37 -2 29 -16 43 -7 25 15 -18 22 -77
19 -90 -4z"/>
<path d="M6167 2083 c-4 -3 -7 -35 -7 -70 l0 -63 55 0 c30 0 55 5 55 10 0 6
-18 10 -40 10 -33 0 -40 3 -40 20 0 16 7 20 34 20 48 0 55 18 9 22 -52 4 -52
32 0 36 20 2 37 7 37 13 0 10 -93 13 -103 2z"/>
<path d="M6310 2075 c-17 -21 -3 -54 28 -61 33 -8 54 -23 46 -35 -7 -12 -54
-11 -54 1 0 6 -7 10 -16 10 -22 0 -12 -22 17 -38 37 -21 79 -1 79 37 0 27 -5
32 -40 42 -22 7 -40 18 -40 26 0 16 24 17 50 1 24 -15 37 -4 20 17 -16 19 -74
20 -90 0z"/>
<path d="M2974 1945 c1 -28 11 -33 20 -9 9 24 7 34 -8 34 -9 0 -13 -10 -12
-25z"/>
<path d="M4727 1883 c-11 -10 -8 -61 3 -68 6 -4 8 -16 5 -27 -15 -45 58 -77
97 -42 14 14 20 14 33 4 8 -7 28 -10 45 -8 27 4 30 2 30 -24 0 -15 5 -28 10
-28 6 0 10 33 10 80 l0 80 35 0 c33 0 35 -2 35 -34 0 -19 -6 -36 -12 -39 -10
-3 -8 -10 5 -23 14 -15 19 -16 26 -6 5 8 21 12 37 10 25 -2 29 -7 29 -32 0
-16 6 -31 13 -33 9 -4 12 16 12 76 0 47 4 81 10 81 6 0 10 5 10 10 0 6 -69 10
-186 10 -121 0 -183 -3 -179 -10 3 -5 21 -10 40 -10 43 0 55 -18 27 -41 -12
-9 -22 -21 -22 -27 0 -5 -16 -17 -35 -28 -26 -14 -37 -16 -46 -7 -18 18 -3 43
26 43 15 0 24 4 20 10 -3 6 -17 10 -30 10 -31 0 -51 33 -30 50 8 7 12 16 9 21
-6 11 -18 12 -27 2z m381 -32 c8 -5 12 -21 10 -37 -2 -25 -8 -29 -35 -32 -31
-3 -33 -2 -33 31 0 18 3 37 7 40 9 9 35 8 51 -2z m-170 -38 c-2 -28 -9 -41
-30 -53 -22 -12 -30 -12 -40 -2 -11 11 -9 16 11 31 17 13 22 23 16 39 -5 19
-2 22 20 22 24 0 26 -3 23 -37z"/>
<path d="M3142 1868 c-7 -7 -12 -19 -12 -28 0 -9 5 -21 12 -28 9 -9 9 -15 0
-24 -7 -7 -12 -20 -12 -29 0 -18 40 -49 63 -49 8 0 22 -10 30 -22 9 -13 16
-18 16 -11 1 6 -3 15 -9 18 -5 3 -10 17 -10 30 0 12 -7 25 -15 29 -9 3 -15 0
-15 -9 0 -20 -29 -19 -37 1 -3 8 1 22 8 30 12 11 22 11 54 2 22 -6 48 -18 58
-27 13 -11 20 -12 29 -3 7 7 25 12 40 12 25 0 28 -3 28 -35 0 -19 5 -35 10
-35 6 0 10 33 10 80 0 47 4 80 10 80 6 0 10 5 10 10 0 6 -37 10 -91 10 -57 0
-88 -4 -84 -10 3 -5 15 -10 26 -10 15 0 19 -7 18 -37 0 -21 -3 -33 -5 -26 -3
7 -18 9 -40 6 -33 -6 -34 -5 -28 24 5 24 1 34 -17 47 -28 19 -31 20 -47 4z
m48 -27 c0 -11 -5 -23 -11 -27 -15 -9 -33 12 -26 30 9 23 37 20 37 -3z m180
-26 c0 -33 -2 -35 -35 -35 -33 0 -35 2 -35 35 0 33 2 35 35 35 33 0 35 -2 35
-35z"/>
<path d="M2905 1860 c3 -5 19 -10 36 -10 26 0 29 -3 29 -30 0 -23 -4 -30 -20
-30 -30 0 -24 -16 21 -63 40 -41 41 -42 14 -5 -14 20 -22 39 -18 41 5 3 28 3
51 0 40 -5 42 -7 42 -41 0 -21 -7 -40 -16 -47 -11 -8 -14 -19 -10 -33 6 -17
15 -22 39 -21 31 2 31 2 4 6 -19 3 -27 10 -25 20 5 29 26 25 67 -13 23 -20 41
-32 41 -26 0 6 -18 25 -40 42 l-40 32 0 80 c0 65 3 83 18 94 14 11 1 13 -91
14 -70 0 -106 -4 -102 -10z m153 -42 c-3 -29 -7 -33 -35 -36 -32 -3 -33 -2
-33 32 0 35 1 36 36 36 34 0 35 -1 32 -32z"/>
<path d="M3595 1860 c3 -5 42 -10 86 -10 74 0 79 -1 79 -21 0 -15 -4 -19 -16
-15 -9 4 -23 1 -31 -5 -10 -9 -17 -9 -25 -1 -20 20 -58 14 -67 -10 -5 -13 -6
-30 -3 -38 7 -21 64 -80 76 -80 6 0 -4 13 -22 28 -27 22 -33 34 -30 57 4 36
37 48 45 16 7 -26 19 -27 33 -1 6 11 17 20 25 20 11 0 15 -13 15 -55 0 -30 5
-55 10 -55 6 0 10 33 10 80 0 76 1 80 23 80 25 0 51 -42 35 -58 -15 -15 8 -51
36 -58 13 -3 34 0 46 6 22 12 23 11 18 -34 -5 -43 -4 -46 14 -40 15 5 19 2 16
-13 -4 -24 -52 -29 -85 -8 -13 9 -27 15 -29 12 -7 -6 40 -35 69 -42 14 -4 35
-2 46 5 24 12 28 45 6 54 -12 4 -15 24 -15 91 0 50 4 85 10 85 6 0 10 5 10 10
0 6 -72 10 -196 10 -127 0 -193 -3 -189 -10z m345 -43 c0 -40 -28 -70 -62 -65
-33 4 -29 32 7 39 30 6 28 9 -20 24 -8 2 -15 11 -15 20 0 11 11 15 45 15 44 0
45 0 45 -33z"/>
<path d="M4075 1860 c3 -5 13 -10 21 -10 10 0 14 -13 14 -49 0 -54 10 -66 83
-105 19 -11 38 -28 41 -39 2 -10 9 -16 15 -12 20 12 11 24 -49 60 l-60 36 0
55 c0 53 0 54 30 54 28 0 30 -2 30 -40 0 -28 -5 -43 -16 -47 -13 -5 -13 -7 -2
-14 23 -15 26 -10 33 46 l7 55 79 0 c78 0 79 0 79 -25 0 -22 -3 -24 -19 -15
-27 14 -76 13 -88 -2 -23 -29 8 -78 50 -78 10 0 27 5 38 11 19 10 20 8 17 -17
-2 -15 2 -29 10 -31 9 -4 12 16 12 76 0 47 4 81 10 81 6 0 10 5 10 10 0 6 -65
10 -176 10 -114 0 -173 -3 -169 -10z m269 -60 c34 -13 33 -26 -3 -45 -27 -13
-31 -13 -45 1 -20 19 -20 19 0 38 18 19 16 19 48 6z"/>
<path d="M4515 1860 c3 -5 14 -10 24 -10 21 0 33 -39 19 -63 -4 -8 -5 -22 -2
-31 7 -17 34 -22 34 -6 0 6 14 10 30 10 28 0 30 -3 30 -35 0 -19 5 -35 10 -35
8 0 16 106 11 148 -1 6 5 12 14 12 8 0 15 5 15 10 0 6 -39 10 -96 10 -61 0
-93 -4 -89 -10z m135 -45 c0 -32 -2 -35 -30 -35 -28 0 -30 3 -30 35 0 32 2 35
30 35 28 0 30 -3 30 -35z"/>
<path d="M5246 1861 c5 -6 34 -11 64 -13 47 -3 55 -6 55 -23 0 -14 -8 -21 -27
-23 -34 -4 -37 -22 -4 -22 35 0 59 -26 46 -51 -16 -28 -45 -23 -74 14 -14 17
-26 28 -26 22 1 -15 33 -51 58 -64 46 -24 84 21 51 63 -13 16 -16 27 -8 31 6
4 8 18 5 31 -6 23 -4 24 49 24 30 0 55 -4 55 -10 0 -5 -11 -10 -24 -10 -14 0
-28 -5 -31 -10 -6 -9 8 -66 25 -100 9 -19 53 -25 80 -10 16 9 20 8 20 -5 0 -8
5 -15 10 -15 6 0 10 33 10 80 l0 80 35 0 c33 0 35 -2 35 -35 0 -19 -4 -35 -10
-35 -5 0 -10 -7 -10 -15 0 -19 32 -33 38 -17 6 20 62 15 64 -5 0 -10 2 -23 2
-30 1 -6 5 -15 9 -19 7 -7 11 58 7 124 -1 23 3 32 14 32 9 0 16 5 16 10 0 6
-97 10 -272 10 -170 0 -268 -4 -262 -9z m314 -60 c0 -42 -4 -53 -26 -70 -34
-27 -64 -27 -64 -1 0 15 7 20 25 20 37 0 30 18 -7 22 -41 4 -45 32 -7 36 17 2
29 11 32 23 3 11 14 19 26 19 18 0 21 -6 21 -49z m180 14 c0 -33 -2 -35 -34
-35 -41 0 -46 6 -39 43 5 23 10 27 39 27 32 0 34 -2 34 -35z"/>
<path d="M3446 1711 c-4 -6 -4 -15 -1 -21 3 -5 1 -19 -5 -30 -15 -28 -4 -25
16 4 11 17 13 30 6 42 -6 11 -11 13 -16 5z"/>
<path d="M5150 1578 c0 -20 1 -20 13 -4 12 17 45 14 49 -5 6 -41 34 -36 -251
-38 -123 0 -221 -4 -217 -8 4 -4 26 -8 49 -9 52 -2 64 -24 12 -24 l-36 0 7
-52 c4 -37 13 -58 28 -70 31 -26 39 -22 11 6 -27 27 -25 52 6 61 29 9 41 -3
28 -27 -9 -16 -8 -19 3 -16 7 3 14 14 16 26 3 22 -27 37 -63 30 -10 -2 -20 3
-22 10 -3 8 8 12 35 12 34 0 41 3 44 23 2 16 10 22 28 22 20 0 26 -6 28 -29 2
-16 -2 -33 -10 -38 -10 -7 -9 -12 7 -24 12 -9 21 -11 23 -4 2 5 17 10 33 10
26 0 29 -4 29 -30 0 -16 5 -30 10 -30 6 0 10 30 10 69 0 60 2 69 20 74 28 7
32 -4 25 -67 -4 -32 -2 -63 4 -73 8 -14 10 1 11 60 l0 77 34 0 c19 0 37 -4 40
-9 9 -14 -4 -41 -20 -41 -8 0 -14 -4 -14 -10 0 -14 72 -92 78 -85 3 3 -7 18
-22 34 -17 18 -24 31 -17 35 6 4 11 22 11 41 0 32 20 52 41 39 5 -3 9 -36 9
-75 0 -39 4 -69 10 -69 6 0 10 32 10 76 0 44 4 73 9 69 5 -3 12 -1 16 5 3 5
-1 10 -9 10 -9 0 -22 16 -30 35 -13 29 -20 35 -45 35 -25 0 -31 -4 -31 -22z
m-152 -96 c3 -30 1 -32 -27 -32 -28 0 -31 3 -31 29 0 52 53 55 58 3z"/>
<path d="M5560 1585 c-7 -8 -10 -21 -7 -29 8 -20 -19 -25 -118 -23 -79 2 -106
-6 -70 -19 8 -4 15 -13 15 -20 0 -8 11 -20 25 -26 32 -14 26 -34 -9 -30 -34 4
-33 -3 10 -44 44 -41 52 -43 29 -8 -16 25 -16 27 5 46 16 15 21 29 18 49 -4
23 -1 29 14 29 16 0 18 -9 18 -69 0 -98 18 -101 22 -4 3 70 5 78 23 78 18 0
20 -8 23 -70 4 -99 22 -109 22 -12 0 55 4 77 13 78 23 1 82 2 100 0 10 0 17
-9 17 -21 0 -23 -3 -24 -30 -8 -37 23 -77 -24 -50 -57 7 -8 27 -15 46 -15 26
0 33 -5 37 -22 3 -17 5 -15 6 8 0 17 8 37 16 44 12 10 17 6 29 -23 7 -19 19
-38 25 -41 15 -10 13 5 -4 28 -29 39 -14 66 36 66 16 0 19 -7 19 -50 0 -27 5
-50 10 -50 6 0 10 29 10 68 0 40 5 73 12 80 16 16 11 17 -157 17 -133 0 -140
1 -140 20 0 24 42 32 75 15 11 -6 20 -8 20 -6 0 9 -58 36 -78 36 -11 0 -25 -7
-32 -15z m-122 -93 c2 -14 -2 -22 -11 -22 -17 0 -30 27 -21 41 9 16 29 4 32
-19z m402 8 c0 -5 -10 -10 -22 -10 -13 -1 -34 -7 -48 -15 -37 -21 -50 -18 -50
10 0 24 3 25 60 25 33 0 60 -4 60 -10z m-151 -44 c10 -12 8 -17 -9 -26 -26
-14 -46 0 -37 24 8 20 31 21 46 2z"/>
<path d="M2460 1512 c-32 -26 -32 -88 0 -113 33 -25 91 -24 124 2 34 27 36 77
3 107 -29 28 -95 30 -127 4z m106 -30 c16 -32 6 -62 -24 -73 -53 -20 -96 46
-56 86 23 22 66 15 80 -13z"/>
<path d="M2640 1475 c0 -69 22 -95 79 -95 52 0 71 26 71 97 0 46 -3 53 -20 53
-18 0 -20 -7 -20 -59 0 -64 -14 -80 -51 -61 -15 9 -19 22 -19 65 0 48 -2 55
-20 55 -18 0 -20 -7 -20 -55z"/>
<path d="M2830 1454 c0 -66 2 -75 18 -72 11 2 18 14 20 36 3 29 5 31 25 20 12
-6 30 -22 40 -35 18 -22 57 -32 57 -15 0 5 -11 19 -25 32 -24 23 -24 23 -5 37
22 16 26 43 8 61 -7 7 -39 12 -75 12 l-63 0 0 -76z m108 34 c3 -15 -4 -18 -37
-18 -39 0 -53 14 -34 34 14 14 68 1 71 -16z"/>
<path d="M3100 1515 c-22 -27 -7 -49 43 -64 48 -15 61 -35 28 -46 -21 -6 -51
3 -51 16 0 5 -9 9 -20 9 -26 0 -25 -15 2 -34 49 -34 130 -9 121 37 -4 18 -16
27 -51 38 -53 16 -61 32 -19 37 15 2 27 -1 27 -7 0 -6 9 -11 20 -11 23 0 26
10 8 28 -17 17 -93 15 -108 -3z"/>
<path d="M3250 1520 c0 -5 11 -10 25 -10 24 0 25 -2 25 -65 0 -58 2 -65 20
-65 18 0 20 7 20 65 0 63 1 65 25 65 14 0 25 5 25 10 0 6 -30 10 -70 10 -40 0
-70 -4 -70 -10z"/>
<path d="M3420 1455 c0 -68 2 -75 20 -75 16 0 20 7 20 35 0 19 4 35 10 35 5 0
25 -16 44 -36 19 -20 42 -34 52 -32 15 3 14 7 -9 34 -25 29 -25 30 -6 42 25
16 24 48 0 62 -11 5 -45 10 -75 10 l-56 0 0 -75z m108 33 c3 -15 -4 -18 -32
-18 -30 0 -36 4 -36 21 0 17 5 20 32 17 22 -2 34 -9 36 -20z"/>
<path d="M3610 1455 l0 -76 68 3 c79 4 90 22 15 26 -45 3 -53 6 -53 23 0 16 7
19 45 19 25 0 45 5 45 10 0 6 -20 10 -45 10 -38 0 -45 3 -45 20 0 17 7 20 50
20 28 0 50 5 50 10 0 6 -28 10 -65 10 l-65 0 0 -75z"/>
<path d="M3780 1455 c0 -60 3 -75 15 -75 11 0 15 12 15 45 0 25 3 45 8 45 4
-1 22 -21 40 -45 49 -67 62 -61 62 30 0 59 -3 75 -14 75 -11 0 -16 -14 -18
-47 l-3 -48 -33 48 c-20 29 -40 47 -52 47 -18 0 -20 -7 -20 -75z"/>
<path d="M3985 1505 c-39 -38 -32 -86 16 -110 58 -31 129 -10 129 37 0 26 -3
28 -40 28 -22 0 -40 -4 -40 -10 0 -5 9 -10 20 -10 11 0 20 -7 20 -15 0 -16
-43 -21 -74 -9 -19 7 -22 64 -4 82 15 15 64 16 73 2 3 -5 16 -10 28 -10 l22 1
-24 19 c-34 29 -95 27 -126 -5z"/>
<path d="M4160 1520 c0 -5 11 -10 25 -10 24 0 25 -2 25 -65 0 -50 3 -65 15
-65 10 0 15 16 17 63 3 59 4 62 31 65 55 7 25 22 -43 22 -40 0 -70 -4 -70 -10z"/>
<path d="M4330 1455 c0 -60 3 -75 15 -75 10 0 15 11 15 35 0 34 1 35 40 35 39
0 40 -1 40 -35 0 -24 5 -35 15 -35 12 0 15 15 15 75 0 60 -3 75 -15 75 -10 0
-15 -10 -15 -30 0 -28 -2 -30 -40 -30 -38 0 -40 2 -40 30 0 20 -5 30 -15 30
-12 0 -15 -15 -15 -75z"/>
<path d="M4614 1486 c-9 -24 0 -58 19 -70 36 -23 75 35 47 70 -16 18 -59 18
-66 0z"/>
<path d="M1120 1483 c0 -5 12 -13 26 -20 26 -12 26 -12 9 7 -18 20 -35 26 -35
13z"/>
<path d="M1620 1486 c0 -3 14 -12 32 -20 31 -16 31 -16 13 4 -16 18 -45 28
-45 16z"/>
<path d="M800 1430 c0 -5 7 -10 15 -10 8 0 15 -7 15 -15 0 -8 -7 -15 -15 -15
-22 0 -18 -16 13 -48 15 -15 21 -21 15 -12 -21 27 -16 43 10 36 12 -3 25 -6
30 -6 4 0 7 -9 7 -19 0 -11 5 -23 10 -26 6 -4 10 15 10 49 l0 56 55 0 c30 0
55 -4 55 -10 0 -5 -6 -11 -12 -12 -7 0 -17 -2 -23 -3 -5 -2 -20 -3 -32 -4 -17
-1 -23 -7 -23 -24 0 -13 10 -32 23 -43 l22 -19 -19 22 c-25 29 -14 55 21 53
46 -3 53 -1 53 20 0 13 7 20 20 20 11 0 20 -5 20 -11 0 -23 -22 -49 -43 -49
-20 -1 -21 -1 -4 -11 10 -6 21 -8 25 -5 3 4 12 -4 19 -16 11 -21 12 -17 13 35
0 50 2 57 20 57 22 0 29 -35 8 -43 -9 -3 -8 -10 6 -23 13 -14 20 -15 23 -6 8
20 43 14 43 -7 0 -11 5 -23 10 -26 6 -4 10 15 10 49 l0 56 40 0 c22 0 40 -4
40 -10 0 -5 -11 -10 -25 -10 -14 0 -28 -7 -31 -15 -7 -18 13 -45 34 -45 8 0
21 -8 28 -17 12 -16 13 -11 14 34 0 28 3 58 6 67 6 14 -21 16 -250 16 -164 0
-256 -4 -256 -10z m90 -31 c0 -15 -5 -20 -22 -17 -31 4 -33 38 -2 38 18 0 24
-5 24 -21z m290 1 c0 -13 -7 -20 -20 -20 -13 0 -20 7 -20 20 0 13 7 20 20 20
13 0 20 -7 20 -20z m100 -25 c0 -10 -10 -15 -26 -15 -22 0 -25 2 -14 15 7 8
19 15 26 15 8 0 14 -7 14 -15z"/>
<path d="M1365 1430 c3 -5 29 -10 56 -10 36 0 49 -4 47 -12 -3 -7 -16 -14 -30
-16 -20 -2 -25 -7 -21 -23 7 -26 -12 -24 -31 3 -9 12 -16 17 -16 11 0 -6 8
-21 18 -34 21 -25 55 -20 50 8 -2 10 4 19 15 21 13 3 17 -3 17 -27 0 -16 5
-33 10 -36 6 -4 10 15 10 49 l0 56 46 0 c41 0 45 -2 42 -21 -3 -24 -33 -48
-44 -36 -4 3 -2 13 4 20 7 8 9 16 6 20 -10 9 -34 -4 -34 -19 0 -18 39 -44 56
-37 8 3 14 -1 14 -11 0 -9 5 -16 10 -16 6 0 10 23 10 50 l0 50 45 0 c53 0 60
-16 10 -26 -28 -5 -35 -11 -35 -29 0 -12 10 -30 23 -41 22 -19 22 -19 5 2 -24
27 -23 41 3 49 26 9 36 -1 42 -40 2 -17 5 -5 6 28 0 31 6 57 11 57 6 0 10 5
10 10 0 6 -67 10 -181 10 -117 0 -178 -3 -174 -10z"/>
<path d="M2688 1029 c-10 -5 -20 -25 -24 -44 -3 -20 -12 -35 -20 -35 -18 0
-18 -17 1 -27 10 -6 15 -31 17 -88 3 -74 5 -80 26 -83 21 -3 22 -1 22 78 0 73
2 82 20 87 23 6 27 33 6 33 -8 0 -17 4 -20 9 -10 16 5 41 24 41 10 0 20 6 23
14 10 24 -42 35 -75 15z"/>
<path d="M3265 1029 c-30 -17 -45 -40 -45 -69 0 -41 20 -60 90 -84 73 -25 85
-49 38 -75 -21 -12 -31 -13 -53 -3 -15 7 -29 21 -32 31 -3 13 -11 17 -29 13
-30 -6 -31 -23 -1 -58 28 -32 106 -43 147 -22 47 25 61 81 32 126 -5 7 -38 23
-73 35 -50 17 -64 26 -64 42 0 30 69 34 87 6 15 -24 58 -29 58 -7 0 8 -10 27
-23 41 -26 31 -98 44 -132 24z"/>
<path d="M4354 1026 c-73 -32 -102 -122 -65 -200 36 -73 113 -95 199 -56 l42
19 0 56 0 55 -60 0 c-53 0 -60 -2 -60 -19 0 -15 8 -21 32 -23 48 -4 50 -34 4
-53 -47 -20 -49 -19 -85 11 -27 23 -31 32 -31 78 0 39 5 58 20 74 27 29 83 29
110 2 21 -21 60 -27 60 -9 0 24 -24 52 -55 65 -42 17 -71 17 -111 0z"/>
<path d="M5653 1025 c-13 -9 -23 -27 -23 -41 0 -13 -7 -27 -15 -30 -8 -4 -15
-12 -15 -19 0 -7 7 -15 15 -19 12 -4 15 -24 15 -86 0 -79 0 -80 25 -80 25 0
25 1 25 85 0 78 2 85 20 85 26 0 26 26 -1 33 -28 7 -21 41 9 45 31 5 25 36 -8
40 -14 1 -35 -4 -47 -13z"/>
<path d="M820 891 c0 -137 0 -138 23 -137 21 1 22 6 27 101 l5 100 17 -76 c26
-113 34 -131 61 -127 19 3 25 16 47 103 l25 100 5 -100 c5 -94 6 -100 28 -103
22 -3 22 -3 22 137 l0 141 -40 0 c-38 0 -40 -2 -50 -42 -40 -152 -43 -156 -59
-85 -28 128 -28 127 -71 127 l-40 0 0 -139z"/>
<path d="M1140 1010 c0 -15 7 -20 25 -20 18 0 25 5 25 20 0 15 -7 20 -25 20
-18 0 -25 -5 -25 -20z"/>
<path d="M1490 1011 c0 -10 9 -21 19 -24 24 -6 31 0 31 25 0 13 -7 18 -25 18
-18 0 -25 -5 -25 -19z"/>
<path d="M2900 890 c0 -133 1 -140 20 -140 19 0 20 7 20 100 0 55 4 100 8 100
4 0 18 -41 30 -91 12 -51 23 -93 25 -95 2 -2 14 -5 27 -6 23 -3 26 3 50 97
l25 100 5 -100 c5 -92 7 -100 25 -100 19 0 20 8 23 138 l3 138 -43 -3 -42 -3
-21 -82 c-11 -45 -22 -84 -25 -87 -3 -3 -16 35 -29 84 l-23 90 -39 0 -39 0 0
-140z"/>
<path d="M3480 896 c0 -74 4 -137 9 -140 5 -4 16 -3 25 0 13 5 16 24 16 102 0
52 3 93 6 90 3 -4 16 -48 28 -100 21 -87 24 -93 48 -94 25 -1 28 4 49 90 32
133 38 135 39 13 0 -107 0 -108 23 -105 21 3 22 6 25 141 l3 137 -43 0 -43 0
-24 -90 c-13 -50 -26 -89 -29 -86 -2 3 -14 43 -26 88 l-22 83 -42 3 -42 3 0
-135z"/>
<path d="M3810 890 l0 -140 100 0 100 0 0 25 c0 24 -2 25 -75 25 l-75 0 0 40
0 40 70 0 c63 0 70 2 70 20 0 18 -7 20 -70 20 l-70 0 0 35 0 35 75 0 c68 0 75
2 75 20 0 19 -7 20 -100 20 l-100 0 0 -140z"/>
<path d="M5860 890 l0 -140 25 0 25 0 0 140 0 140 -25 0 -25 0 0 -140z"/>
<path d="M6340 984 c0 -40 -2 -45 -17 -38 -36 16 -85 8 -104 -17 -34 -44 -20
-140 25 -171 19 -13 63 -9 76 7 11 14 14 13 25 -2 7 -9 19 -14 29 -10 14 5 16
25 16 142 l0 135 -25 0 c-23 0 -25 -4 -25 -46z m-10 -83 c25 -47 5 -111 -35
-111 -14 0 -29 8 -35 19 -14 27 -13 84 2 99 18 18 56 14 68 -7z"/>
<path d="M6450 1005 c0 -26 7 -29 34 -19 27 10 20 44 -9 44 -20 0 -25 -5 -25
-25z"/>
<path d="M1835 1006 c-10 -7 -20 -22 -21 -32 -2 -10 -8 -20 -13 -22 -15 -5
-14 -29 1 -34 7 -3 14 -32 16 -74 5 -79 13 -94 53 -94 22 0 29 5 29 20 0 11
-7 20 -15 20 -12 0 -15 14 -15 65 0 52 3 65 16 65 10 0 14 7 12 18 -2 9 -10
16 -16 15 -8 -2 -12 10 -12 32 0 38 -6 42 -35 21z"/>
<path d="M5063 1007 c-13 -5 -23 -18 -23 -28 0 -10 -4 -21 -10 -24 -5 -3 -10
-15 -10 -26 0 -10 5 -19 10 -19 6 0 10 -28 10 -64 0 -74 14 -96 61 -96 22 0
29 5 29 19 0 10 -9 21 -20 24 -17 4 -20 14 -20 62 0 48 3 58 20 62 25 7 26 29
1 36 -13 3 -21 15 -23 34 -3 27 -5 29 -25 20z"/>
<path d="M1323 945 c-14 -10 -24 -12 -28 -5 -3 5 -15 10 -26 10 -18 0 -19 -8
-19 -101 0 -98 0 -100 23 -97 20 3 22 9 25 73 3 76 13 95 47 95 29 0 35 -16
35 -101 0 -67 1 -69 25 -69 25 0 25 1 25 85 0 72 -3 88 -20 105 -24 24 -57 26
-87 5z"/>
<path d="M1620 948 c-17 -9 -26 -23 -28 -44 -4 -37 15 -55 72 -69 55 -13 64
-45 12 -45 -19 0 -38 5 -41 10 -8 13 -55 13 -55 1 0 -5 12 -19 26 -30 47 -37
138 -23 150 23 11 45 -3 64 -63 83 -67 21 -82 43 -29 43 20 0 36 -4 36 -10 0
-13 20 -13 40 0 13 8 13 11 -1 25 -22 22 -88 29 -119 13z"/>
<path d="M2006 945 c-9 -9 -16 -12 -16 -6 0 6 -11 11 -25 11 -25 0 -25 0 -25
-94 0 -77 3 -95 16 -100 26 -10 34 3 34 57 0 76 8 97 36 97 13 0 27 8 33 17 5
10 11 16 14 13 9 -11 67 -173 67 -189 0 -22 -19 -41 -43 -41 -13 0 -17 -5 -13
-16 3 -9 6 -18 6 -20 0 -13 60 -1 74 15 21 23 108 250 100 262 -2 5 -14 5 -26
0 -15 -5 -27 -26 -40 -70 -10 -34 -22 -59 -27 -57 -4 3 -16 32 -26 66 -17 56
-20 60 -49 60 -17 0 -40 3 -52 6 -13 3 -28 -1 -38 -11z"/>
<path d="M2460 948 c-51 -27 -67 -114 -30 -161 38 -48 130 -44 165 7 23 32 19
96 -8 129 -26 33 -88 45 -127 25z m84 -50 c29 -42 9 -108 -32 -108 -45 0 -69
75 -35 112 22 24 49 23 67 -4z"/>
<path d="M4621 944 c-31 -22 -52 -75 -45 -114 4 -17 20 -42 36 -55 41 -35 88
-33 130 4 28 25 33 36 33 75 0 36 -6 51 -26 72 -33 33 -95 42 -128 18z m84
-38 c22 -16 25 -77 5 -101 -16 -20 -54 -19 -71 1 -20 24 -16 84 6 100 24 18
36 18 60 0z"/>
<path d="M5421 944 c-31 -22 -52 -75 -45 -114 9 -42 56 -80 101 -80 50 0 103
54 103 104 0 76 -100 133 -159 90z m84 -38 c22 -16 26 -76 6 -100 -16 -19 -52
-21 -69 -4 -17 17 -15 84 4 102 19 20 35 20 59 2z"/>
<path d="M6042 944 c-12 -8 -22 -10 -22 -5 0 6 -11 11 -25 11 -25 0 -25 0 -25
-99 0 -98 0 -98 25 -98 24 0 25 2 25 64 0 76 12 103 45 103 28 0 34 -15 37
-105 3 -52 6 -60 23 -60 18 0 20 8 23 82 2 72 0 85 -18 103 -24 24 -57 26 -88
4z"/>
<path d="M6590 953 c-17 -6 -40 -32 -40 -45 0 -12 48 -10 55 2 10 16 52 12 59
-5 6 -16 -13 -27 -70 -39 -18 -4 -37 -17 -44 -31 -28 -52 29 -102 86 -76 14 6
31 8 37 4 7 -4 20 -9 29 -10 14 -2 16 8 14 83 -2 77 -5 89 -25 105 -22 18 -69
24 -101 12z m80 -122 c0 -25 -24 -43 -52 -39 -32 4 -31 40 2 49 41 12 50 10
50 -10z"/>
<path d="M1142 853 c3 -90 5 -98 23 -98 18 0 20 8 23 98 l3 97 -26 0 -26 0 3
-97z"/>
<path d="M1490 849 c0 -98 0 -100 23 -97 21 3 22 8 25 101 l3 97 -26 0 -25 0
0 -101z"/>
<path d="M4821 898 c11 -29 29 -73 39 -98 14 -35 23 -45 41 -45 19 0 28 14 61
95 21 52 38 96 38 98 0 2 -12 2 -27 0 -23 -3 -29 -11 -46 -60 -10 -32 -22 -58
-26 -58 -3 0 -15 26 -26 58 -17 49 -24 57 -48 60 l-27 3 21 -53z"/>
<path d="M6450 849 c0 -98 0 -100 23 -97 21 3 22 8 24 101 l2 97 -24 0 c-25 0
-25 0 -25 -101z"/>
<path d="M4062 783 c2 -10 10 -23 18 -30 13 -10 13 -14 -3 -30 -22 -25 -10
-39 15 -16 11 10 18 30 18 55 0 34 -3 38 -25 38 -19 0 -25 -5 -23 -17z"/>
<path d="M5170 774 c0 -21 4 -25 23 -22 14 2 23 11 25 26 3 18 -1 22 -22 22
-21 0 -26 -5 -26 -26z"/>
</g>
</svg>
