<?xml version="1.0" standalone="no"?>
<!DOCTYPE svg PUBLIC "-//W3C//DTD SVG 20010904//EN"
 "http://www.w3.org/TR/2001/REC-SVG-20010904/DTD/svg10.dtd">
<svg version="1.0" xmlns="http://www.w3.org/2000/svg"
 width="832.000000pt" height="321.000000pt" viewBox="0 0 832.000000 321.000000"
 preserveAspectRatio="xMidYMid meet">

<g transform="translate(0.000000,321.000000) scale(0.100000,-0.100000)"
fill="#9da3b9" stroke="none">
<path d="M638 3079 c-13 -7 -18 -23 -18 -57 0 -26 -9 -67 -20 -91 -11 -23 -17
-47 -14 -52 12 -21 -20 -7 -38 16 -12 15 -30 25 -46 25 -15 0 -36 7 -46 15
-23 18 -38 18 -88 5 -47 -13 -169 -130 -215 -207 -31 -52 -32 -57 -18 -79 8
-13 27 -31 41 -40 14 -9 31 -29 39 -45 8 -15 29 -37 45 -49 30 -21 32 -21 51
-4 27 24 48 5 32 -28 -48 -99 -56 -187 -24 -261 21 -49 88 -130 101 -122 10 6
20 -31 20 -80 0 -22 7 -77 15 -122 22 -129 2 -263 -40 -263 -8 0 -22 -17 -32
-37 -10 -20 -24 -39 -31 -41 -11 -3 -12 0 -2 19 11 23 11 23 -5 4 -10 -12 -15
-33 -13 -52 2 -18 2 -33 -2 -33 -3 0 -17 -11 -32 -24 -26 -23 -26 -25 -13 -67
11 -37 14 -39 14 -16 1 41 18 32 25 -14 8 -47 -3 -139 -15 -139 -5 0 -9 9 -9
20 0 28 -18 25 -26 -4 -14 -56 36 -123 98 -133 21 -3 41 -10 44 -15 4 -6 10
-5 15 3 4 7 11 10 15 6 4 -4 -1 -13 -11 -21 -13 -9 -16 -19 -10 -32 4 -11 9
-14 12 -8 6 17 41 5 46 -15 4 -14 5 -14 6 2 0 9 6 17 12 17 6 0 9 -7 5 -15 -5
-13 43 -15 411 -13 l417 3 16 29 c11 22 12 30 3 33 -7 3 -13 9 -13 14 0 6 6 9
13 8 25 -3 91 4 75 8 -14 3 -10 10 19 36 20 18 40 31 44 30 3 -1 12 19 19 45
8 26 19 56 27 67 17 26 17 56 -2 81 -8 10 -15 29 -15 42 0 38 -27 90 -49 97
-12 3 -21 15 -21 25 0 30 -47 77 -93 93 -38 12 -43 18 -59 68 l-17 54 0 -55
c-1 -52 -2 -53 -18 -37 -16 16 -18 37 -15 180 1 89 6 165 11 170 15 15 23 -61
15 -146 -9 -115 2 -93 15 28 12 111 38 200 77 259 36 54 77 176 60 176 -8 0
-19 -7 -26 -15 -12 -14 -15 -14 -31 1 -24 22 -24 36 1 59 28 25 36 13 14 -21
-14 -21 -15 -26 -4 -21 8 4 23 10 33 13 23 8 17 54 -19 133 -28 63 -28 61 -10
61 8 0 24 -12 35 -27 l21 -28 84 90 c47 50 85 96 86 102 0 7 -12 25 -27 41
-16 15 -20 18 -10 6 10 -12 17 -31 15 -43 -3 -20 -4 -20 -35 5 -32 25 -32 26
-18 54 19 37 19 54 -2 71 -12 10 -15 10 -9 1 5 -8 -1 -20 -16 -32 -20 -17 -21
-19 -5 -20 25 0 11 -20 -14 -20 -19 0 -19 -1 -2 -25 10 -13 34 -32 53 -42 28
-13 31 -18 16 -21 -10 -2 -36 4 -56 13 -24 11 -54 16 -80 13 l-41 -4 3 36 c3
30 7 36 33 41 l30 5 -32 8 c-41 9 -42 29 -3 58 17 12 30 28 30 36 0 18 -55 72
-72 71 -10 0 -10 -2 0 -6 6 -2 12 -11 12 -19 0 -8 6 -14 14 -14 16 0 25 -19
19 -37 -3 -7 -10 -13 -17 -13 -14 0 -77 -45 -112 -79 -12 -12 -24 -21 -28 -21
-11 0 -6 30 10 55 14 22 14 25 1 25 -8 0 -17 7 -21 15 -5 13 -12 12 -56 -5
-27 -11 -50 -16 -50 -11 0 18 53 51 81 51 18 0 32 7 39 20 6 11 25 27 43 34
18 8 25 15 16 15 -9 1 -34 -11 -55 -25 -21 -15 -58 -29 -81 -32 l-43 -5 -25
54 c-14 30 -28 70 -31 89 -4 19 -11 41 -17 48 -12 15 -403 17 -429 1z m326
-14 c-7 -17 21 -21 31 -5 3 6 18 10 33 10 25 0 29 -5 39 -51 7 -28 10 -55 7
-60 -8 -14 -24 -11 -24 4 0 7 -16 21 -36 31 -35 16 -36 17 -19 36 21 23 16 25
-20 8 -17 -8 -29 -8 -36 -1 -13 13 -1 43 17 43 8 0 11 -6 8 -15z m-232 -13
c26 -14 35 -15 31 -5 -3 8 2 13 12 13 10 0 15 -6 13 -17 -2 -13 -16 -19 -50
-23 -61 -7 -70 -17 -24 -25 44 -9 86 14 87 48 1 21 1 21 7 2 5 -13 18 -21 40
-23 29 -3 32 -1 33 25 2 27 2 27 6 2 3 -20 13 -27 48 -37 25 -7 62 -28 84 -47
21 -19 45 -35 53 -35 26 0 35 -22 42 -99 5 -62 4 -77 -11 -93 -10 -11 -16 -34
-16 -56 2 -44 -43 -114 -58 -91 -15 24 -10 58 11 69 17 9 20 20 19 69 -1 32 4
73 11 92 8 24 9 41 1 59 -9 23 -10 23 -10 4 -1 -27 -26 -48 -46 -40 -17 6 -20
41 -5 51 15 9 12 41 -5 55 -9 7 -15 8 -15 2 0 -5 -11 -13 -25 -16 -38 -10 -30
-22 13 -18 35 3 36 2 18 -12 -22 -18 -62 -21 -71 -6 -8 13 15 47 40 59 l20 10
-21 0 c-38 2 -59 -24 -59 -71 0 -39 -3 -43 -25 -46 -40 -4 -55 11 -40 39 11
20 10 25 -14 46 -34 29 -63 29 -93 1 -29 -27 -29 -36 2 -48 30 -11 32 -31 5
-55 -19 -17 -21 -17 -40 0 -11 10 -20 24 -20 32 0 7 -4 13 -10 13 -5 0 -10 -7
-10 -16 0 -22 -23 -12 -37 16 -14 28 1 65 22 56 17 -6 28 34 14 51 -6 6 -8 17
-4 22 3 6 1 19 -4 29 -20 37 22 43 81 14z m108 -3 c0 -5 -4 -9 -10 -9 -5 0
-10 7 -10 16 0 8 5 12 10 9 6 -3 10 -10 10 -16z m30 6 c0 -8 -4 -15 -10 -15
-5 0 -10 7 -10 15 0 8 5 15 10 15 6 0 10 -7 10 -15z m50 -11 c0 -8 -4 -12 -10
-9 -5 3 -10 10 -10 16 0 5 5 9 10 9 6 0 10 -7 10 -16z m-115 -108 c26 -19 13
-46 -23 -46 -34 0 -67 29 -36 31 11 1 27 0 38 -1 12 -1 16 3 11 10 -4 6 -16
10 -26 7 -11 -3 -19 -1 -19 4 0 14 34 11 55 -5z m-350 -30 c12 -18 14 -39 9
-95 -4 -39 -11 -71 -16 -71 -5 0 -7 -13 -3 -29 3 -17 2 -32 -4 -36 -6 -3 -11
-2 -11 3 0 5 -12 14 -27 21 -26 12 -26 14 -10 26 16 11 16 14 1 26 -14 12 -14
14 5 21 23 8 29 52 10 64 -7 4 -10 1 -7 -7 6 -17 -9 -49 -22 -49 -6 0 -10 10
-10 23 0 17 -10 28 -35 40 -45 21 -37 43 26 68 60 23 76 23 94 -5z m63 -14 c3
-9 -2 -13 -14 -10 -9 1 -19 9 -22 16 -3 9 2 13 14 10 9 -1 19 -9 22 -16z m68
-54 c4 -6 1 -13 -5 -17 -8 -6 -7 -18 4 -45 9 -21 14 -40 11 -43 -9 -9 -26 8
-26 26 0 9 -20 30 -45 45 -25 16 -45 33 -45 38 0 27 89 24 106 -4z m345 8 c-8
-10 -9 -16 -1 -21 5 -3 10 -2 10 3 0 5 7 9 15 9 20 0 19 -4 -6 -18 -17 -9 -23
-8 -30 2 -7 11 -9 10 -9 -3 0 -20 32 -32 61 -23 15 5 19 4 15 -4 -4 -6 -16
-11 -27 -11 -10 0 -19 -4 -19 -10 0 -17 36 -11 63 10 27 21 49 28 30 9 -9 -9
-9 -16 0 -30 9 -15 7 -23 -12 -43 -31 -32 -48 -23 -21 11 24 31 21 38 -11 23
-30 -14 -94 5 -70 20 22 13 -61 6 -86 -8 -31 -17 -51 -15 -62 7 -10 18 -8 19
28 14 21 -3 47 0 57 6 17 10 15 11 -11 8 -16 -2 -25 -2 -18 0 13 5 26 33 15
33 -5 0 -14 -6 -22 -12 -12 -11 -12 -10 -1 4 9 12 22 15 44 12 20 -4 39 0 52
10 25 19 31 20 16 2z m-273 -26 c19 0 14 -25 -8 -45 -25 -23 -27 -20 -36 35
-7 44 -7 45 13 28 11 -10 25 -18 31 -18z m-343 6 c41 -17 44 -29 13 -43 -22
-11 -22 -11 -3 -19 31 -12 35 -23 35 -102 0 -71 -1 -75 -34 -108 -39 -39 -56
-43 -56 -14 0 11 5 20 12 20 18 0 48 31 48 50 0 10 -7 23 -15 30 -18 15 -20
-1 -3 -18 7 -7 8 -12 2 -12 -16 0 -34 22 -34 42 0 10 12 24 26 31 l27 12 -24
6 c-45 13 -69 10 -62 -6 6 -18 -23 -55 -44 -55 -17 0 -17 3 7 45 11 20 20 41
20 47 0 6 8 17 18 24 14 10 15 15 4 26 -10 10 -16 10 -33 0 -24 -15 -37 -10
-17 8 12 10 69 47 76 49 1 1 18 -6 37 -13z m915 4 c0 -12 -59 -50 -77 -50 -27
0 -11 22 30 40 50 23 47 23 47 10z m-250 -20 c-8 -6 -22 -10 -30 -9 -9 0 -5 6
10 14 27 14 44 10 20 -5z m-445 -36 c24 -26 33 -54 17 -54 -12 0 -72 58 -72
69 0 20 31 11 55 -15z m190 -3 c-5 -23 -1 -33 21 -50 20 -16 30 -18 40 -10 9
8 21 5 43 -12 37 -27 76 -28 105 0 27 25 38 27 29 5 -3 -9 -6 -25 -7 -37 -1
-20 -6 -22 -60 -19 -32 1 -64 -2 -71 -8 -13 -11 -27 0 -38 33 -4 9 -16 17 -28
17 -33 0 -59 29 -59 65 0 32 6 45 22 45 5 0 7 -13 3 -29z m635 9 c0 -5 -9 -14
-20 -20 -11 -6 -20 -17 -20 -25 0 -8 -7 -15 -15 -15 -21 0 -19 20 7 47 22 23
48 31 48 13z m-143 -25 c-27 -24 -57 -32 -70 -19 -9 9 53 43 78 43 18 0 17 -2
-8 -24z m-1003 -13 c7 -12 -44 -84 -57 -79 -20 6 -18 24 8 56 27 32 40 38 49
23z m467 -19 c19 -50 -25 -58 -55 -10 -8 13 -7 20 4 27 25 16 40 11 51 -17z
m228 -2 c13 -23 5 -31 -29 -31 -35 0 -61 27 -39 41 24 15 58 10 68 -10z m449
-3 c-2 -12 -14 -28 -28 -35 -13 -7 -30 -20 -37 -30 -10 -13 -16 -14 -25 -5
-18 18 2 46 34 50 16 2 28 11 31 23 7 27 29 24 25 -3z m-829 -12 c13 -14 22
-29 20 -35 -6 -15 -69 25 -69 44 0 23 24 18 49 -9z m721 12 c0 -7 -18 -23 -40
-35 -49 -26 -66 -11 -26 24 29 25 66 31 66 11z m-110 -8 c0 -5 -4 -10 -10 -10
-5 0 -10 5 -10 10 0 6 5 10 10 10 6 0 10 -4 10 -10z m-546 -16 c11 -27 7 -37
-9 -24 -16 14 -20 40 -6 40 5 0 12 -7 15 -16z m-168 -53 c14 -22 23 -45 19
-51 -5 -8 -14 -2 -26 17 -10 15 -26 38 -35 51 -15 20 -15 22 0 22 8 0 27 -18
42 -39z m714 23 c0 -8 -5 -25 -11 -37 -9 -18 -9 -20 2 -9 31 29 41 -7 13 -47
-13 -18 -18 -20 -25 -10 -10 16 -12 80 -3 103 8 21 24 21 24 0z m-622 -10 c13
-9 30 -13 39 -10 42 16 71 -67 38 -110 -13 -16 -16 -17 -25 -4 -14 22 -12 40
5 40 19 0 19 14 0 30 -13 11 -17 8 -26 -19 -6 -17 -14 -31 -18 -31 -16 0 -70
57 -72 75 -4 50 16 59 59 29z m201 -6 c24 -17 24 -18 6 -38 -10 -11 -23 -20
-29 -20 -10 0 -56 59 -56 71 0 11 58 2 79 -13z m711 14 c0 -5 -9 -17 -20 -27
-28 -25 -25 -34 15 -51 19 -8 35 -16 35 -18 0 -3 3 -11 6 -20 10 -25 -14 -19
-57 16 -41 33 -52 71 -27 96 14 14 48 16 48 4z m-200 -15 c0 -17 -20 -37 -37
-37 -10 0 -10 5 -1 25 12 26 38 34 38 12z m130 5 c0 -15 -63 -91 -72 -86 -10
6 7 41 35 72 21 22 37 29 37 14z m170 -22 c0 -5 -4 -10 -10 -10 -5 0 -10 5
-10 10 0 6 5 10 10 10 6 0 10 -4 10 -10z m-44 -24 c14 -11 16 -17 7 -27 -9 -9
-18 -6 -42 10 -17 13 -31 24 -31 27 0 10 48 3 66 -10z m-1229 -29 c-7 -21 -32
-13 -35 11 -3 21 -1 22 18 12 12 -6 19 -17 17 -23z m155 13 c7 -11 21 -20 31
-20 22 0 59 -18 69 -34 11 -16 10 -56 -1 -56 -5 0 -18 12 -29 27 -19 27 -21
27 -39 10 -22 -19 -33 -14 -33 18 0 12 -9 30 -20 40 -11 10 -20 22 -20 27 0
16 30 8 42 -12z m408 -13 c24 -12 46 -28 48 -34 6 -20 -20 -15 -45 9 -19 18
-23 19 -23 5 0 -28 -18 -28 -44 0 -53 57 -28 64 64 20z m190 15 c0 -23 -29
-64 -41 -57 -14 9 -11 42 7 59 20 21 34 20 34 -2z m250 3 c0 -9 -7 -18 -15
-21 -24 -10 -17 -24 12 -24 l26 0 -24 -26 -24 -26 39 8 39 7 -29 -37 c-27 -33
-30 -35 -42 -19 -7 10 -16 30 -19 46 -3 15 -10 30 -14 33 -14 8 -10 36 8 56
20 22 43 24 43 3z m-310 -40 c0 -15 -35 -30 -50 -20 -13 8 -13 28 2 43 14 14
48 -2 48 -23z m392 -17 c-4 -40 -22 -53 -22 -17 0 20 19 64 24 57 2 -1 1 -20
-2 -40z m-672 13 c0 -5 -7 -14 -15 -21 -13 -10 -15 -9 -15 9 0 12 6 21 15 21
8 0 15 -4 15 -9z m506 -6 c-3 -8 -9 -22 -13 -31 -5 -13 -2 -15 16 -9 22 7 22
6 6 -24 -8 -17 -18 -31 -20 -31 -3 0 -12 16 -20 37 -14 33 -14 38 1 55 21 22
39 24 30 3z m-76 -5 c0 -5 -4 -10 -10 -10 -5 0 -10 5 -10 10 0 6 5 10 10 10 6
0 10 -4 10 -10z m-710 -14 c0 -7 10 -25 21 -40 16 -20 19 -30 10 -39 -6 -6
-11 -23 -11 -38 0 -15 -4 -31 -10 -34 -5 -3 -10 -16 -10 -28 0 -12 -7 -31 -15
-41 -14 -19 -15 -19 -35 -1 -11 10 -20 27 -20 38 0 19 1 20 20 2 25 -22 26 -7
3 34 -20 34 -9 56 13 27 16 -23 19 -4 3 26 -13 25 -5 35 16 18 25 -21 28 -4 5
27 -12 17 -18 36 -14 46 7 20 24 23 24 3z m334 -11 c-6 -14 -35 -35 -48 -35
-13 0 -5 24 12 36 23 18 43 17 36 -1z m326 0 c0 -8 -4 -15 -10 -15 -5 0 -10 7
-10 15 0 8 5 15 10 15 6 0 10 -7 10 -15z m-482 -12 c10 -19 -16 -153 -29 -153
-15 0 -17 31 -6 99 11 72 19 85 35 54z m52 7 c0 -5 -2 -10 -4 -10 -3 0 -8 5
-11 10 -3 6 -1 10 4 10 6 0 11 -4 11 -10z m171 -17 c-6 -10 -19 -29 -30 -43
-18 -23 -20 -23 -27 -7 -4 12 1 26 16 43 28 29 56 34 41 7z m225 -10 c37 -30
43 -43 19 -43 -8 0 -15 3 -15 8 0 4 -10 12 -22 17 -13 6 -24 18 -26 28 -5 23
3 22 44 -10z m104 1 c0 -8 -6 -11 -15 -8 -8 4 -15 12 -15 20 0 8 6 11 15 8 8
-4 15 -12 15 -20z m260 7 c0 -11 -4 -23 -10 -26 -6 -4 -10 5 -10 19 0 14 5 26
10 26 6 0 10 -9 10 -19z m-887 -26 c14 -29 14 -37 3 -47 -7 -7 -11 -20 -8 -30
2 -10 -1 -25 -8 -33 -6 -7 -12 -36 -13 -64 -1 -27 -6 -53 -10 -57 -4 -4 -7 -1
-7 7 0 8 -14 22 -30 31 -17 9 -30 24 -30 33 0 18 5 19 30 5 26 -14 33 4 10 25
-24 22 -17 35 17 35 l26 0 -22 24 c-27 28 -21 47 11 38 l22 -5 -22 27 c-12 16
-19 32 -16 37 11 19 31 8 47 -26z m377 30 c0 -9 -72 -85 -81 -85 -18 0 -8 38
16 64 20 22 65 37 65 21z m84 -24 c15 -16 26 -36 24 -45 -3 -15 -5 -15 -25 -1
-12 8 -31 29 -43 45 -20 29 -20 30 -3 30 11 0 32 -13 47 -29z m134 -4 c5 -24
-15 -21 -28 4 -10 18 -9 20 7 17 10 -2 19 -11 21 -21z m-452 -12 c-3 -9 -11
-13 -16 -10 -8 5 -7 11 1 21 14 18 24 11 15 -11z m689 -12 c-9 -14 -14 -28
-10 -31 4 -4 11 1 16 11 11 19 39 23 39 5 0 -18 -31 -48 -50 -48 -41 0 -53 47
-20 80 28 28 46 15 25 -17z m-118 0 c-15 -16 -17 -16 -17 -1 0 9 6 18 13 21
20 7 22 -2 4 -20z m-607 7 c0 -5 -5 -10 -11 -10 -5 0 -7 5 -4 10 3 6 8 10 11
10 2 0 4 -4 4 -10z m110 -8 c0 -5 -11 -19 -25 -32 -28 -27 -36 -8 -8 22 17 19
33 24 33 10z m203 -4 c12 -6 29 -21 37 -32 16 -23 24 -116 9 -116 -5 0 -9 4
-9 10 0 5 -16 20 -35 32 -40 26 -48 53 -12 42 12 -4 29 -9 37 -12 13 -5 13 -3
1 11 -7 9 -19 17 -27 17 -20 0 -44 29 -38 45 7 18 9 18 37 3z m227 -14 c0 -8
-4 -14 -9 -14 -11 0 -22 26 -14 34 9 9 23 -3 23 -20z m-103 -6 c13 -12 23 -25
23 -30 0 -17 -29 -7 -44 14 -29 42 -16 51 21 16z m-177 -2 c0 -8 -11 -23 -25
-34 -14 -11 -25 -25 -25 -31 0 -16 -20 -13 -26 4 -3 8 6 27 23 44 30 32 53 39
53 17z m238 -10 c3 -12 -1 -17 -10 -14 -7 3 -15 13 -16 22 -3 12 1 17 10 14 7
-3 15 -13 16 -22z m-508 4 c0 -5 -5 -10 -11 -10 -5 0 -7 5 -4 10 3 6 8 10 11
10 2 0 4 -4 4 -10z m152 -32 c-21 -22 -22 -22 -22 -2 0 27 21 47 34 34 7 -7 3
-17 -12 -32z m479 -11 c-8 -8 -11 -4 -11 14 0 33 14 47 18 19 2 -12 -1 -27 -7
-33z m-31 28 c0 -8 -4 -15 -10 -15 -5 0 -7 7 -4 15 4 8 8 15 10 15 2 0 4 -7 4
-15z m-562 -7 c-2 -6 -10 -14 -16 -16 -7 -2 -10 2 -6 12 7 18 28 22 22 4z
m402 -29 c12 -16 19 -33 15 -37 -7 -8 -55 43 -55 59 0 18 19 8 40 -22z m120
10 c0 -5 -4 -9 -10 -9 -5 0 -10 7 -10 16 0 8 5 12 10 9 6 -3 10 -10 10 -16z
m108 -41 l-13 -23 -3 28 c-2 16 3 35 10 44 12 15 13 14 16 -5 2 -11 -3 -31
-10 -44z m-668 32 c0 -5 -5 -10 -11 -10 -5 0 -7 5 -4 10 3 6 8 10 11 10 2 0 4
-4 4 -10z m110 -3 c0 -8 -9 -22 -20 -32 -19 -18 -20 -17 -20 1 0 20 17 44 32
44 4 0 8 -6 8 -13z m400 -2 c7 -9 10 -18 7 -22 -8 -7 -37 15 -37 28 0 14 16
11 30 -6z m-184 -49 c32 -30 56 -58 52 -61 -8 -8 -74 39 -100 69 -11 13 -18
16 -18 8 0 -7 -6 -20 -14 -28 -8 -7 -16 -19 -19 -26 -8 -23 -20 1 -13 27 6 22
38 65 49 65 2 0 30 -24 63 -54z m388 3 c-21 -40 -32 -22 -14 22 8 19 16 27 22
21 6 -6 3 -22 -8 -43z m-534 19 c-1 -29 -25 -62 -39 -53 -15 9 -14 27 5 53 20
28 34 28 34 0z m-248 -49 c-11 -16 -9 -19 9 -19 16 0 19 -4 14 -20 -4 -12 -1
-27 5 -35 7 -8 8 -15 3 -15 -12 0 -47 38 -62 68 -10 18 -9 23 4 28 9 4 14 13
11 21 -10 26 7 39 18 14 7 -16 6 -28 -2 -42z m99 28 c-8 -8 -11 -7 -11 4 0 20
13 34 18 19 3 -7 -1 -17 -7 -23z m529 18 c0 -8 -4 -15 -9 -15 -13 0 -22 16
-14 24 11 11 23 6 23 -9z m70 -24 c0 -16 -6 -34 -14 -40 -12 -10 -14 -5 -11
31 4 53 3 50 15 43 6 -3 10 -19 10 -34z m-170 -38 c0 -23 -20 -14 -40 20 -29
46 -25 55 10 22 17 -16 30 -35 30 -42z m50 11 c0 -8 -4 -14 -10 -14 -12 0 -31
35 -23 44 9 8 33 -14 33 -30z m250 17 c0 -21 -13 -41 -26 -41 -17 0 -17 5 -2
30 13 21 28 27 28 11z m-990 -52 c0 -5 -4 -9 -8 -9 -9 0 -32 44 -32 58 1 10
40 -38 40 -49z m290 32 c0 -13 -29 -35 -37 -28 -7 8 15 37 28 37 5 0 9 -4 9
-9z m47 -36 c1 -25 -2 -47 -7 -50 -11 -7 -24 59 -16 80 11 28 21 15 23 -30z
m-117 25 c0 -5 -5 -10 -11 -10 -5 0 -7 5 -4 10 3 6 8 10 11 10 2 0 4 -4 4 -10z
m560 0 c0 -5 -2 -10 -4 -10 -3 0 -8 5 -11 10 -3 6 -1 10 4 10 6 0 11 -4 11
-10z m250 1 c0 -6 -4 -13 -10 -16 -5 -3 -10 -15 -10 -26 0 -10 -4 -19 -10 -19
-14 0 -13 26 2 50 13 21 28 27 28 11z m-612 -17 c-3 -19 -34 -41 -43 -32 -4 3
-2 16 5 27 13 25 43 28 38 5z m64 -26 c-11 -11 -26 -18 -33 -16 -9 3 -5 13 16
33 20 21 30 25 33 16 2 -7 -5 -22 -16 -33z m93 12 c3 -6 -3 -10 -13 -10 -21 0
-46 23 -36 33 8 7 40 -8 49 -23z m94 3 c12 -14 19 -28 16 -31 -6 -7 -34 17
-46 40 -15 28 6 22 30 -9z m207 -21 c-15 -15 -16 -15 -16 4 0 28 24 52 28 28
2 -9 -3 -24 -12 -32z m-814 12 c10 -21 9 -30 -4 -52 -23 -37 -32 -37 -45 -1
-12 30 -11 31 13 25 25 -7 25 -6 9 24 -14 27 -14 30 0 30 8 0 21 -12 27 -26z
m678 -5 c0 -11 -27 -12 -34 0 -3 4 -3 11 0 14 8 8 34 -3 34 -14z m74 -49 c-6
-46 -9 -51 -20 -36 -7 10 -11 23 -9 29 30 85 40 87 29 7z m111 19 c-13 -25
-35 -40 -35 -24 0 17 32 65 40 60 6 -4 4 -18 -5 -36z m-785 -5 c7 -13 10 -27
6 -31 -9 -9 -46 33 -46 53 0 20 25 7 40 -22z m146 9 c-10 -10 -19 5 -10 18 6
11 8 11 12 0 2 -7 1 -15 -2 -18z m494 12 c0 -8 -4 -15 -10 -15 -5 0 -10 7 -10
15 0 8 5 15 10 15 6 0 10 -7 10 -15z m-530 -21 c0 -8 -4 -14 -9 -14 -11 0 -22
26 -14 34 9 9 23 -3 23 -20z m280 19 c-1 -13 -48 -63 -60 -63 -16 0 -12 12 17
42 26 27 43 36 43 21z m-110 -11 c0 -5 -11 -19 -25 -32 -28 -27 -36 -8 -8 22
17 19 33 24 33 10z m236 -17 c9 -13 14 -30 11 -37 -2 -8 -12 0 -23 20 -11 17
-24 30 -31 27 -7 -2 -15 0 -18 5 -4 6 5 10 19 10 16 0 32 -9 42 -25z m-78 -8
c5 -24 -15 -21 -28 4 -10 18 -9 20 7 17 10 -2 19 -11 21 -21z m139 -3 c-9 -9
-28 6 -21 18 4 6 10 6 17 -1 6 -6 8 -13 4 -17z m263 19 c0 -5 -9 -19 -20 -33
-18 -23 -20 -24 -20 -4 0 20 17 44 32 44 4 0 8 -3 8 -7z m-799 -46 c-16 -16
-20 -5 -8 23 9 22 11 23 14 6 3 -10 0 -23 -6 -29z m669 34 c0 -6 -4 -13 -10
-16 -5 -3 -10 1 -10 9 0 9 5 16 10 16 6 0 10 -4 10 -9z m-734 -36 c3 -14 12
-25 20 -25 8 0 14 -4 14 -10 0 -23 -32 -5 -49 27 -14 27 -14 33 -1 33 5 0 12
-11 16 -25z m182 13 c-2 -6 -10 -14 -16 -16 -7 -2 -10 2 -6 12 7 18 28 22 22
4z m452 2 c0 -5 -5 -10 -11 -10 -5 0 -7 5 -4 10 3 6 8 10 11 10 2 0 4 -4 4
-10z m-503 -110 c29 -167 29 -194 -5 -263 -16 -34 -40 -91 -52 -127 -26 -75
-35 -89 -68 -101 -34 -13 -52 4 -43 39 6 21 15 28 41 32 38 6 54 30 19 30 -21
0 -22 1 -14 103 4 56 8 147 9 202 l1 101 40 46 c48 55 52 51 72 -62z m13 100
c0 -5 -5 -10 -11 -10 -5 0 -7 5 -4 10 3 6 8 10 11 10 2 0 4 -4 4 -10z m80 0
c0 -5 -4 -10 -10 -10 -5 0 -10 5 -10 10 0 6 5 10 10 10 6 0 10 -4 10 -10z m85
-20 c-17 -33 -35 -40 -35 -12 0 21 18 42 37 42 11 0 10 -6 -2 -30z m185 4 c0
-8 -7 -14 -15 -14 -15 0 -21 21 -9 33 10 9 24 -2 24 -19z m-121 -29 c-20 -34
-39 -39 -39 -10 0 13 37 45 52 45 4 0 -2 -16 -13 -35z m75 18 c5 -11 -2 -24
-21 -39 -15 -13 -31 -23 -35 -24 -14 0 -8 21 7 26 8 4 15 17 15 30 0 28 25 33
34 7z m309 -8 c-7 -21 -13 -19 -13 6 0 11 4 18 10 14 5 -3 7 -12 3 -20z m-15
-90 c12 -23 15 -57 13 -152 -2 -138 11 -208 43 -225 22 -11 65 -57 66 -70 1
-19 -28 -6 -35 15 -6 22 -7 21 -21 -22 -3 -11 -10 -9 -28 8 -26 25 -46 62
-100 186 l-35 81 6 144 6 144 35 -40 c18 -21 41 -52 50 -69z m-142 60 c6 -33
8 -34 20 -18 12 16 13 10 14 -43 0 -73 -16 -164 -31 -179 -8 -7 -10 10 -5 65
4 59 3 70 -5 50 -21 -47 -10 -267 15 -300 31 -41 47 -88 27 -75 -27 16 -75
107 -90 167 -9 37 -19 68 -23 68 -12 0 -9 -31 7 -75 8 -22 14 -60 15 -84 0
-38 2 -42 15 -31 20 17 27 8 20 -22 -5 -20 -11 -23 -39 -20 l-33 4 4 71 c3 51
1 68 -6 57 -20 -29 -22 0 -7 82 9 47 16 100 15 119 l0 34 -12 -35 c-7 -19 -16
-34 -22 -33 -25 5 -30 163 -6 163 5 0 14 -13 20 -30 13 -40 25 -38 19 3 -7 43
-1 55 36 78 42 25 44 25 52 -16z m124 25 c0 -5 -4 -10 -10 -10 -5 0 -10 5 -10
10 0 6 5 10 10 10 6 0 10 -4 10 -10z m90 -9 c0 -5 -7 -14 -15 -21 -13 -10 -15
-9 -15 9 0 12 6 21 15 21 8 0 15 -4 15 -9z m-650 -63 c-1 -41 -3 -49 -11 -36
-5 10 -8 30 -5 45 2 16 5 31 5 36 1 4 3 7 6 7 3 0 5 -24 5 -52z m103 28 c19
-21 23 -22 33 -8 6 9 18 13 28 9 12 -5 16 -20 16 -65 0 -74 -10 -152 -20 -152
-4 0 -10 27 -14 60 -8 68 -26 91 -26 33 0 -55 26 -191 39 -207 13 -15 5 -26
-19 -26 -19 0 -66 -47 -57 -57 4 -3 16 2 26 11 19 18 21 17 40 -15 12 -19 21
-40 21 -46 0 -19 -27 -16 -38 3 -5 9 -15 14 -21 10 -6 -4 -9 -11 -6 -16 3 -4
-3 -10 -13 -13 -9 -2 -24 -8 -33 -11 -13 -6 -18 1 -22 30 -5 30 -2 40 16 55
18 15 20 21 10 37 -6 10 -14 43 -17 73 -22 211 -28 290 -22 304 9 23 55 18 79
-9z m-263 -100 c0 -81 -17 -61 -25 29 -6 65 -5 69 9 51 11 -13 16 -40 16 -80z
m430 18 c6 -14 10 -42 10 -62 0 -20 7 -64 15 -97 9 -42 12 -90 8 -157 l-6 -98
-43 0 c-41 0 -44 2 -53 38 -14 50 -16 153 -6 290 l8 112 29 0 c21 0 31 -6 38
-26z m-241 -255 c1 -47 -8 -59 -45 -59 -11 0 -12 5 -5 18 5 9 14 49 20 89 6
39 12 75 12 80 3 18 18 -85 18 -128z m459 -4 c4 -45 2 -55 -11 -55 -18 0 -33
75 -22 110 11 35 28 8 33 -55z m-478 -144 c-8 -14 -9 -14 -10 2 0 10 -4 15
-10 12 -13 -8 -13 -3 1 32 l12 28 8 -29 c5 -17 4 -36 -1 -45z m500 39 c12 -23
12 -24 -3 -11 -10 7 -17 20 -17 29 0 18 3 16 20 -18z m222 15 c3 3 15 -6 28
-20 27 -29 19 -47 -9 -21 -15 13 -20 14 -24 4 -4 -10 -10 -8 -21 6 -23 28 -21
49 3 37 10 -6 20 -8 23 -6z m-942 -12 c0 -5 -4 -15 -10 -23 -11 -18 -25 -7
-17 15 6 15 27 21 27 8z m180 -3 c0 -5 -2 -10 -4 -10 -2 0 -12 -3 -20 -6 -12
-5 -15 -2 -10 10 7 17 34 22 34 6z m597 -42 c-3 -7 -5 -2 -5 12 0 14 2 19 5
13 2 -7 2 -19 0 -25z m-802 -17 c3 -5 1 -12 -5 -16 -5 -3 -10 1 -10 9 0 18 6
21 15 7z m515 -31 c0 -5 7 -7 15 -4 8 4 21 1 29 -5 7 -6 16 -8 19 -4 4 3 7 1
7 -6 0 -7 5 -9 10 -6 6 3 10 2 10 -3 0 -5 9 -12 21 -15 12 -3 18 -10 14 -16
-3 -6 1 -14 9 -17 9 -3 16 -15 16 -25 0 -10 4 -19 9 -19 13 0 7 -111 -7 -137
-7 -13 -9 -23 -5 -23 4 0 0 -5 -9 -11 -10 -5 -18 -17 -18 -24 0 -8 -7 -15 -15
-15 -8 0 -15 -5 -15 -12 0 -6 -3 -8 -7 -5 -3 4 -17 0 -31 -9 -13 -8 -30 -13
-37 -10 -8 3 -15 0 -17 -6 -3 -8 -11 -9 -24 -3 -10 4 -27 7 -36 6 -10 -1 -18
3 -18 9 0 7 -7 9 -15 6 -9 -3 -18 1 -21 8 -3 8 -14 16 -25 19 -10 3 -19 12
-19 21 0 9 -4 16 -10 16 -17 0 -37 63 -35 110 3 49 19 100 34 100 5 0 11 9 14
20 3 11 12 20 20 20 8 0 17 7 21 15 3 8 12 12 21 9 8 -3 15 -1 15 4 0 9 17 14
68 21 6 0 12 -3 12 -9z m-476 -61 c14 -17 26 -38 26 -48 0 -9 7 -27 16 -39 13
-19 22 -21 49 -16 19 3 35 1 39 -5 4 -6 20 -11 37 -11 27 0 29 2 29 40 0 32 7
46 35 75 20 19 40 35 46 35 11 0 8 -5 -28 -59 -13 -19 -23 -44 -23 -57 0 -14
-12 -31 -30 -44 -16 -12 -30 -29 -30 -39 0 -10 20 -38 45 -63 44 -45 56 -68
35 -68 -6 0 -15 11 -20 25 -10 26 -46 49 -97 60 -18 3 -35 11 -38 16 -4 5 -14
5 -27 -2 -16 -9 -25 -6 -45 13 -16 14 -27 19 -30 11 -2 -6 -17 -25 -34 -42
-16 -17 -29 -38 -29 -46 0 -9 -4 -13 -10 -10 -15 9 -12 23 10 45 16 16 21 38
25 109 4 61 2 91 -5 96 -7 5 -11 0 -10 -11 4 -31 1 -44 -10 -44 -14 0 -12 66
2 90 18 28 42 25 72 -11z m706 7 c0 -22 19 -30 35 -16 8 7 15 9 15 5 0 -4 6
-2 14 4 12 10 18 7 32 -14 16 -25 16 -27 -10 -53 -26 -28 -35 -75 -16 -87 6
-3 10 0 11 7 3 48 8 63 29 80 12 10 29 18 36 18 19 0 29 -27 16 -43 -5 -6 -12
-25 -15 -42 -26 -130 -68 -222 -59 -127 3 32 -1 40 -27 60 -24 18 -30 28 -25
46 3 13 1 27 -5 30 -6 4 -8 20 -5 35 5 23 2 30 -13 35 -11 3 -27 22 -36 41
-16 34 -16 35 3 35 11 0 20 -6 20 -14z m360 -131 c0 -82 -12 -117 -24 -72 -14
53 -3 173 15 161 5 -3 9 -43 9 -89z m-40 -7 c0 -71 -7 -101 -21 -92 -10 6 -12
167 -2 177 14 14 23 -20 23 -85z m-314 58 c1 0 5 -27 8 -58 7 -56 7 -58 -19
-68 -40 -15 -45 -13 -33 21 6 17 8 51 4 75 -6 43 -5 45 17 38 12 -3 23 -7 23
-8z m-526 -16 c0 -5 -7 -10 -16 -10 -8 0 -12 5 -9 10 3 6 10 10 16 10 5 0 9
-4 9 -10z m66 -118 c-3 -2 -17 0 -33 5 -36 12 -41 38 -11 63 l23 19 12 -41 c7
-23 11 -43 9 -46z m679 76 c31 -14 34 -54 5 -90 -11 -14 -24 -37 -30 -52 -5
-14 -14 -26 -20 -26 -15 0 -12 11 15 55 31 49 34 76 7 52 -24 -22 -56 -23 -48
-1 3 9 6 26 6 39 0 14 7 25 18 28 9 3 18 5 19 6 1 0 14 -4 28 -11z m-1017 -86
c-14 -15 -28 -34 -31 -42 -4 -11 -6 -10 -6 4 -1 20 48 80 58 71 2 -3 -7 -18
-21 -33z m848 -56 c-9 -21 -22 -36 -32 -36 -16 0 -16 1 -1 18 8 9 21 31 27 47
7 17 14 25 17 18 2 -6 -3 -27 -11 -47z m187 15 c2 -10 1 -25 -4 -32 -6 -10 -9
-4 -9 19 0 36 5 42 13 13z m-751 -33 c-8 -8 -9 -4 -5 13 4 13 8 18 11 10 2 -7
-1 -18 -6 -23z m-82 -62 c0 -7 -19 -10 -50 -8 -65 5 -65 19 0 18 28 0 50 -4
50 -10z m30 4 c0 -5 -4 -10 -10 -10 -5 0 -10 5 -10 10 0 6 5 10 10 10 6 0 10
-4 10 -10z m30 0 c0 -5 -4 -10 -10 -10 -5 0 -10 5 -10 10 0 6 5 10 10 10 6 0
10 -4 10 -10z m30 0 c0 -5 -4 -10 -10 -10 -5 0 -10 5 -10 10 0 6 5 10 10 10 6
0 10 -4 10 -10z m80 -2 c0 -4 -16 -8 -35 -8 -19 0 -35 4 -35 8 0 5 16 9 35 9
19 0 35 -4 35 -9z m30 2 c0 -5 -4 -10 -10 -10 -5 0 -10 5 -10 10 0 6 5 10 10
10 6 0 10 -4 10 -10z m30 0 c0 -5 -4 -10 -10 -10 -5 0 -10 5 -10 10 0 6 5 10
10 10 6 0 10 -4 10 -10z m30 0 c0 -5 -4 -10 -10 -10 -5 0 -10 5 -10 10 0 6 5
10 10 10 6 0 10 -4 10 -10z m30 0 c0 -5 -4 -10 -10 -10 -5 0 -10 5 -10 10 0 6
5 10 10 10 6 0 10 -4 10 -10z m200 -2 c0 -8 -25 -10 -115 -10 -71 1 -75 1 -75
10 0 4 43 8 95 8 52 0 95 -4 95 -8z m30 2 c0 -5 -4 -10 -10 -10 -5 0 -10 5
-10 10 0 6 5 10 10 10 6 0 10 -4 10 -10z m50 -4 c0 -9 -7 -12 -20 -9 -11 3
-20 9 -20 14 0 5 9 9 20 9 11 0 20 -6 20 -14z m30 4 c0 -5 -4 -10 -10 -10 -5
0 -10 5 -10 10 0 6 5 10 10 10 6 0 10 -4 10 -10z m30 0 c0 -5 -4 -10 -10 -10
-5 0 -10 5 -10 10 0 6 5 10 10 10 6 0 10 -4 10 -10z m80 0 c0 -11 -29 -17 -52
-12 -30 7 -20 19 17 20 19 1 35 -3 35 -8z m30 0 c0 -5 -4 -10 -10 -10 -5 0
-10 5 -10 10 0 6 5 10 10 10 6 0 10 -4 10 -10z m30 0 c0 -5 -4 -10 -10 -10 -5
0 -10 5 -10 10 0 6 5 10 10 10 6 0 10 -4 10 -10z m-770 -60 c0 -5 -4 -10 -10
-10 -5 0 -10 5 -10 10 0 6 5 10 10 10 6 0 10 -4 10 -10z m30 0 c0 -5 -4 -10
-10 -10 -5 0 -10 5 -10 10 0 6 5 10 10 10 6 0 10 -4 10 -10z m50 0 c0 -5 -4
-10 -10 -10 -5 0 -10 5 -10 10 0 6 5 10 10 10 6 0 10 -4 10 -10z m50 2 c0 -4
-9 -8 -20 -9 -11 -1 -20 2 -20 8 0 5 9 9 20 9 11 0 20 -4 20 -8z m30 -2 c0 -5
-4 -10 -10 -10 -5 0 -10 5 -10 10 0 6 5 10 10 10 6 0 10 -4 10 -10z m50 2 c0
-4 -9 -8 -20 -9 -11 -1 -20 2 -20 8 0 5 9 9 20 9 11 0 20 -4 20 -8z m30 -2 c0
-5 -2 -10 -4 -10 -3 0 -8 5 -11 10 -3 6 -1 10 4 10 6 0 11 -4 11 -10z m50 2
c0 -4 -9 -8 -20 -9 -11 -1 -20 2 -20 8 0 5 9 9 20 9 11 0 20 -4 20 -8z m30 -2
c0 -5 -4 -10 -10 -10 -5 0 -10 5 -10 10 0 6 5 10 10 10 6 0 10 -4 10 -10z m30
0 c0 -5 -4 -10 -10 -10 -5 0 -10 5 -10 10 0 6 5 10 10 10 6 0 10 -4 10 -10z
m50 2 c0 -4 -9 -8 -20 -8 -11 0 -20 4 -20 8 0 4 9 8 20 8 11 0 20 -4 20 -8z
m30 -2 c0 -5 -4 -10 -10 -10 -5 0 -10 5 -10 10 0 6 5 10 10 10 6 0 10 -4 10
-10z m50 2 c0 -4 -9 -8 -20 -8 -11 0 -20 4 -20 8 0 4 9 8 20 8 11 0 20 -4 20
-8z m50 0 c0 -4 -9 -8 -20 -9 -11 -1 -20 2 -20 8 0 5 9 9 20 9 11 0 20 -4 20
-8z m30 -2 c0 -5 -4 -10 -10 -10 -5 0 -10 5 -10 10 0 6 5 10 10 10 6 0 10 -4
10 -10z m50 2 c0 -4 -9 -8 -20 -9 -11 -1 -20 2 -20 8 0 5 9 9 20 9 11 0 20 -4
20 -8z m30 -2 c0 -5 -4 -10 -10 -10 -5 0 -10 5 -10 10 0 6 5 10 10 10 6 0 10
-4 10 -10z m50 0 c0 -5 -4 -10 -10 -10 -5 0 -10 5 -10 10 0 6 5 10 10 10 6 0
10 -4 10 -10z m50 1 c0 -6 -9 -9 -20 -8 -11 1 -20 5 -20 9 0 4 9 8 20 8 11 0
20 -4 20 -9z"/>
<path d="M1025 3026 c-5 -11 -3 -21 6 -26 19 -12 21 -7 10 21 -8 22 -10 22
-16 5z"/>
<path d="M680 2935 c-6 -8 -10 -19 -8 -26 2 -6 9 0 16 15 13 29 10 33 -8 11z"/>
<path d="M499 2609 c13 -11 27 -17 30 -13 7 7 -28 34 -43 34 -6 -1 0 -10 13
-21z"/>
<path d="M573 1858 c-6 -34 -14 -72 -18 -83 -6 -19 -6 -19 9 -1 8 10 18 42 21
71 10 78 1 88 -12 13z"/>
<path d="M866 1455 c3 -16 8 -36 10 -43 11 -36 -13 -29 -59 15 l-50 48 39 -48
c55 -67 52 -81 -16 -88 l-55 -6 55 -1 c31 -1 62 -8 69 -14 10 -11 12 -9 10 7
-1 11 5 36 14 55 9 19 16 29 17 23 0 -7 9 -22 21 -34 11 -11 18 -27 15 -34 -2
-7 3 -20 12 -28 19 -16 82 -50 82 -43 0 2 -15 14 -32 26 l-33 21 35 -6 c26 -5
31 -4 20 4 -8 6 -24 11 -35 12 -11 1 3 5 30 9 l50 7 -52 1 c-28 1 -54 6 -57
11 -4 5 2 7 12 5 9 -3 28 0 42 6 23 10 22 10 -10 5 l-35 -5 33 21 c45 29 34
35 -14 8 l-39 -22 40 43 40 44 -42 -33 -42 -32 25 48 c14 26 18 39 10 28 -48
-63 -47 -63 -42 -25 l6 35 -14 -35 -14 -35 -3 40 c-2 38 -2 38 -6 8 -4 -34
-23 -46 -23 -15 0 9 -5 24 -10 32 -8 11 -9 7 -4 -15z"/>
<path d="M841 1430 c12 -22 25 -38 27 -35 5 4 -37 75 -44 75 -3 0 5 -18 17
-40z"/>
<path d="M760 1416 c0 -8 71 -48 76 -43 3 3 -12 15 -35 27 -23 11 -41 18 -41
16z"/>
<path d="M790 1360 c8 -5 24 -9 35 -9 l20 0 -20 9 c-11 5 -27 9 -35 9 -13 1
-13 0 0 -9z"/>
<path d="M885 1341 c-7 -12 12 -24 25 -16 11 7 4 25 -10 25 -5 0 -11 -4 -15
-9z"/>
<path d="M785 1309 c-15 -7 -10 -8 20 -4 l40 6 -42 -26 c-55 -33 -56 -42 -2
-14 l41 21 -28 -39 -28 -38 36 33 c20 19 35 41 34 50 -3 20 -42 26 -71 11z"/>
<path d="M864 1299 c-2 -4 0 -10 6 -14 5 -3 7 -20 5 -38 -4 -29 -3 -28 9 8
l14 40 3 -65 3 -65 4 55 4 55 14 -40 13 -40 -5 40 -5 40 22 -32 c26 -41 35
-43 14 -3 -20 38 -15 38 32 -2 32 -26 30 -23 -10 18 -39 42 -53 50 -83 50 -19
0 -37 -3 -40 -7z m80 -7 c3 -5 -1 -9 -9 -9 -8 0 -12 4 -9 9 3 4 7 8 9 8 2 0 6
-4 9 -8z"/>
<path d="M840 1241 c-11 -23 -18 -41 -16 -41 8 0 48 71 43 76 -3 3 -15 -12
-27 -35z"/>
<path d="M380 1461 c0 -5 6 -14 13 -20 8 -6 19 -28 25 -50 14 -44 35 -66 57
-57 13 4 11 11 -8 40 -12 18 -30 48 -39 65 -16 28 -48 43 -48 22z"/>
<path d="M1203 1443 c-18 -7 -16 -30 3 -37 23 -9 29 0 18 23 -5 10 -15 16 -21
14z"/>
<path d="M2000 2341 l0 -611 223 0 c248 0 307 9 415 62 132 65 243 218 271
372 18 100 14 292 -9 380 -47 186 -161 313 -336 378 -53 19 -83 22 -311 26
l-253 4 0 -611z m452 428 c172 -36 258 -178 258 -429 0 -214 -58 -338 -187
-402 -57 -28 -75 -31 -183 -36 l-120 -5 0 442 0 441 90 0 c49 0 113 -5 142
-11z"/>
<path d="M3140 2340 l0 -610 105 0 105 0 0 224 0 224 193 4 c160 4 203 9 258
27 198 64 297 250 244 456 -37 140 -139 232 -297 270 -48 11 -130 15 -335 15
l-273 0 0 -610z m540 429 c128 -27 198 -179 141 -304 -41 -90 -88 -107 -303
-113 l-168 -4 0 216 0 216 140 0 c76 0 162 -5 190 -11z"/>
<path d="M4260 2340 l0 -610 105 0 105 0 0 610 0 610 -105 0 -105 0 0 -610z"/>
<path d="M4750 2340 l0 -610 105 0 105 0 0 610 0 610 -105 0 -105 0 0 -610z"/>
<path d="M5110 2865 l0 -85 190 0 190 0 0 -525 0 -525 110 0 110 0 0 525 0
525 190 0 190 0 0 85 0 85 -490 0 -490 0 0 -85z"/>
<path d="M1475 2840 c27 -12 43 -12 25 0 -8 5 -22 9 -30 9 -10 0 -8 -3 5 -9z"/>
<path d="M7520 1533 c-53 -19 -68 -86 -28 -123 63 -59 157 32 101 98 -20 23
-50 33 -73 25z"/>
<path d="M6081 1514 c-20 -14 -35 -54 -20 -54 4 0 6 -6 3 -14 -5 -14 40 -56
61 -56 7 0 24 9 38 20 29 23 35 81 11 101 -21 17 -70 18 -93 3z m35 -94 c0
-12 -4 -16 -9 -11 -5 5 -6 14 -3 20 10 15 12 14 12 -9z m54 6 c0 -2 -7 -7 -16
-10 -8 -3 -12 -2 -9 4 6 10 25 14 25 6z"/>
<path d="M7266 1521 c-4 -6 -6 -67 -5 -136 0 -70 -1 -129 -4 -131 -3 -3 -25 9
-50 27 -33 23 -57 32 -90 33 -25 0 -43 4 -40 9 6 9 0 9 -52 -4 -25 -6 -43 -15
-40 -19 3 -4 -2 -11 -11 -14 -8 -3 -12 -2 -9 4 12 20 -6 9 -46 -27 -62 -56
-83 -104 -84 -193 0 -41 2 -82 5 -90 7 -22 23 -31 33 -17 6 8 7 7 4 -3 -2 -8
-9 -14 -15 -13 -6 2 -9 -4 -6 -12 4 -8 10 -15 15 -15 5 0 8 -6 7 -12 -2 -7 5
-12 14 -12 10 1 14 -4 11 -12 -6 -17 37 -55 55 -49 7 3 10 0 7 -5 -5 -9 1 -12
21 -9 4 0 10 -4 13 -10 10 -16 101 -27 101 -12 0 7 5 9 11 6 15 -10 70 15 62
29 -3 6 -3 8 2 4 10 -9 45 9 45 23 0 6 -6 9 -13 6 -8 -3 -14 1 -14 9 0 12 4
12 24 -1 13 -9 23 -11 23 -5 0 5 6 10 14 10 9 0 12 -7 9 -20 -3 -13 0 -20 8
-20 11 0 11 -2 -1 -10 -11 -7 0 -10 37 -10 l52 0 3 323 c2 178 1 337 -2 353
-5 26 -9 29 -47 32 -22 2 -44 -1 -47 -7z m41 -7 c-3 -3 -12 -4 -19 -1 -8 3 -5
6 6 6 11 1 17 -2 13 -5z m-152 -303 c3 -6 14 -8 25 -6 12 2 18 0 15 -6 -4 -5
1 -12 9 -15 9 -3 13 -10 10 -15 -3 -5 0 -9 6 -9 6 0 9 -4 5 -9 -3 -5 -1 -12 4
-15 27 -17 16 -151 -15 -176 -7 -7 -11 -16 -8 -21 3 -5 2 -9 -3 -8 -4 1 -21
-3 -36 -9 -45 -19 -103 -17 -142 4 -37 20 -75 82 -75 123 0 12 -4 19 -10 16
-10 -6 16 63 32 82 5 7 6 18 2 24 -4 8 -3 9 4 5 7 -4 12 -3 12 2 0 29 149 58
165 33z m-218 -223 c-3 -8 -6 -5 -6 6 -1 11 2 17 5 13 3 -3 4 -12 1 -19z m43
-53 c14 -19 14 -19 -2 -6 -10 7 -18 18 -18 24 0 6 1 8 3 6 1 -2 9 -13 17 -24z
m93 -132 c-7 -2 -19 -2 -25 0 -7 3 -2 5 12 5 14 0 19 -2 13 -5z"/>
<path d="M289 1483 c-13 -16 -12 -17 4 -4 9 7 17 15 17 17 0 8 -8 3 -21 -13z"/>
<path d="M3047 1443 c-4 -3 -7 -35 -7 -70 l0 -63 -47 0 -48 0 0 -48 0 -47 50
-1 50 -1 5 -165 c5 -175 5 -175 62 -212 20 -13 45 -17 116 -15 82 1 89 3 85
20 -3 10 -8 17 -12 15 -4 -3 -7 8 -6 22 0 26 -2 27 -57 27 -31 0 -55 1 -53 3
2 2 -5 13 -16 25 -17 18 -19 36 -19 149 l0 128 53 1 c86 2 82 0 82 49 l0 45
-67 3 -68 3 0 69 0 70 -48 0 c-27 0 -52 -3 -55 -7z"/>
<path d="M4535 1414 c1 -18 8 -41 16 -51 12 -15 12 -16 -2 -11 -12 5 -15 1
-11 -18 4 -23 2 -24 -47 -24 l-51 0 0 -50 0 -50 50 0 50 0 2 -102 c1 -57 1
-123 -1 -148 -2 -45 14 -108 25 -97 3 2 17 -6 31 -19 23 -22 35 -24 114 -24
96 0 97 1 77 57 -11 31 -15 33 -58 33 -56 0 -94 23 -84 52 4 13 2 18 -4 14 -6
-3 -8 1 -6 11 2 10 5 65 7 123 l2 105 65 0 65 0 3 48 3 47 -65 0 c-59 0 -66 2
-66 20 0 11 -5 20 -12 20 -8 0 -9 3 -2 10 6 6 8 27 5 48 -6 37 -7 37 -57 38
l-50 1 1 -33z"/>
<path d="M260 1406 c0 -14 -4 -28 -10 -31 -15 -9 -12 -48 5 -81 14 -28 15 -26
15 54 0 45 -2 82 -5 82 -3 0 -5 -11 -5 -24z"/>
<path d="M2016 1383 c-3 -10 -7 -35 -10 -55 -4 -36 -25 -85 -26 -60 0 17 -78
12 -85 -5 -2 -7 0 -13 5 -13 6 0 7 -15 4 -35 l-5 -35 39 0 40 0 -14 -38 c-7
-21 -14 -56 -16 -78 -3 -39 -3 -39 -53 -44 -43 -4 -50 -8 -53 -29 -2 -12 -1
-34 2 -48 6 -20 11 -23 37 -19 l31 5 -7 -47 c-4 -26 -8 -51 -8 -56 -3 -13 37
-16 45 -3 6 9 8 9 8 0 0 -6 8 -10 18 -8 9 1 16 10 16 19 -1 8 2 14 6 11 9 -6
22 53 14 66 -6 10 -6 10 61 11 35 1 49 -2 47 -11 -1 -7 -5 -33 -9 -57 l-6 -44
41 2 c55 2 60 6 64 56 5 52 10 57 61 57 l42 0 3 43 c3 43 -5 49 -55 43 -16 -2
-16 -2 4 91 l16 77 46 3 46 3 3 42 c3 38 1 43 -22 49 -14 3 -30 3 -37 -2 -9
-5 -10 4 -4 37 16 97 19 90 -33 87 l-45 -3 -17 -59 -16 -60 -47 0 -47 -1 2 51
c2 29 6 50 11 47 4 -2 7 3 7 11 0 24 -97 23 -104 -1z m147 -229 c-4 -76 -9
-104 -15 -104 -5 0 -8 -7 -8 -15 0 -11 -12 -15 -51 -15 l-51 0 8 43 c4 23 8
52 8 65 1 12 4 22 9 22 4 0 6 3 6 8 -4 26 4 30 49 27 45 -3 47 -4 45 -31z"/>
<path d="M2639 1326 c-3 -3 -20 -8 -39 -11 -19 -3 -52 -17 -72 -31 -34 -22
-43 -34 -39 -56 0 -5 -3 -8 -9 -8 -13 0 -13 -77 0 -85 6 -4 8 -10 5 -15 -8
-13 73 -73 86 -64 8 5 9 3 4 -6 -6 -10 -4 -12 8 -7 10 3 17 2 17 -4 0 -7 17
-10 44 -8 24 2 42 1 39 -3 -2 -5 8 -8 22 -8 46 0 65 -17 65 -57 0 -47 -22 -62
-90 -63 -41 0 -71 8 -119 30 -45 21 -62 26 -57 15 3 -8 0 -14 -7 -12 -7 1 -11
-6 -11 -15 1 -10 -3 -16 -10 -15 -6 1 -11 -7 -11 -18 0 -29 110 -85 172 -87
27 -1 57 1 68 6 16 6 17 6 5 -4 -25 -19 50 -1 90 22 57 33 83 73 88 137 4 51
1 61 -23 90 -16 19 -34 30 -42 27 -8 -3 -11 -2 -8 4 9 15 -30 30 -97 36 -119
11 -128 15 -128 65 0 34 3 39 28 45 15 4 30 12 34 17 4 7 11 7 20 0 11 -9 52
-20 96 -25 6 -1 12 -5 12 -9 0 -4 7 -10 16 -13 12 -5 15 -2 10 9 -3 9 -2 13 4
10 9 -5 50 32 50 46 0 30 -198 87 -221 65z m-128 -223 c13 -16 12 -17 -3 -4
-17 13 -22 21 -14 21 2 0 10 -8 17 -17z"/>
<path d="M3560 1320 c12 -9 9 -10 -12 -6 -56 12 -133 -43 -185 -131 -23 -39
-27 -59 -28 -117 0 -77 21 -147 37 -124 7 9 8 7 4 -8 -4 -14 3 -30 25 -52 17
-17 35 -29 40 -26 5 3 8 0 7 -7 -4 -16 62 -49 85 -43 9 3 17 1 17 -5 0 -13 81
-6 109 9 12 6 18 16 15 22 -4 7 -2 8 5 4 14 -9 43 12 35 25 -3 5 1 6 9 3 8 -3
18 -1 22 5 11 19 24 12 27 -16 3 -26 7 -28 51 -31 l47 -3 -2 243 -3 243 -48 3
c-33 2 -47 0 -42 -7 3 -6 2 -11 -3 -11 -6 0 -8 -9 -5 -20 7 -27 -9 -25 -45 5
-36 30 -62 40 -127 49 -38 5 -46 4 -35 -4z m122 -119 c21 -10 35 -21 32 -23
-2 -3 2 -11 11 -18 8 -7 15 -21 15 -32 0 -10 4 -17 8 -14 14 9 -3 -110 -20
-135 -35 -50 -45 -57 -83 -67 -45 -12 -95 -11 -95 1 0 5 -10 6 -22 3 -13 -3
-18 -3 -12 0 7 3 0 16 -17 34 -16 16 -32 43 -35 60 -4 17 -10 33 -14 35 -14 9
34 135 50 135 6 0 10 5 10 11 0 6 -7 8 -16 5 -9 -3 -12 -2 -9 5 4 6 13 8 21 5
8 -3 24 -1 36 4 38 15 102 11 140 -9z"/>
<path d="M5725 1326 c-5 -2 -29 -9 -52 -16 -23 -7 -40 -16 -38 -20 3 -4 -3 -7
-13 -6 -9 0 -16 -5 -14 -12 1 -6 -1 -11 -5 -11 -21 3 -33 -2 -27 -13 4 -7 3
-8 -4 -4 -7 4 -12 21 -12 37 0 30 0 30 -52 27 l-53 -3 -3 -332 c-2 -263 0
-333 10 -333 9 0 8 -3 -2 -10 -12 -8 -12 -10 5 -10 17 0 17 -2 5 -10 -11 -7 0
-10 38 -10 l52 0 0 139 c0 95 4 142 12 147 6 4 9 3 6 -2 -3 -5 0 -15 8 -22 8
-7 14 -10 14 -7 0 3 10 -3 22 -14 55 -52 172 -53 242 -4 50 35 109 111 102
130 -3 8 -2 12 3 8 12 -7 20 37 17 90 -5 87 -6 96 -16 90 -5 -3 -7 0 -4 8 2 7
-5 25 -16 38 -15 17 -20 19 -16 7 3 -10 1 -18 -5 -18 -7 0 -9 10 -5 24 5 21
-1 31 -40 60 -26 20 -52 36 -58 37 -11 1 -17 2 -66 12 -14 3 -29 4 -35 3z m64
-120 c18 -6 22 -5 16 5 -5 8 -4 11 1 6 5 -5 9 -13 9 -18 0 -5 4 -8 9 -6 15 4
55 -87 56 -128 0 -80 -65 -155 -135 -155 -111 0 -165 53 -165 162 0 46 4 54
44 94 23 24 42 45 40 46 -6 7 103 1 125 -6z m-159 -19 c0 -2 -10 -12 -22 -23
l-23 -19 19 23 c18 21 26 27 26 19z m300 -281 c0 -2 -8 -10 -17 -17 -16 -13
-17 -12 -4 4 13 16 21 21 21 13z m-301 -30 c9 -11 9 -16 0 -22 -7 -4 -9 -3 -5
4 3 6 -2 15 -11 21 -10 6 -13 11 -7 11 6 0 17 -6 23 -14z"/>
<path d="M7880 1319 c0 -5 -5 -7 -10 -4 -12 7 -70 -16 -70 -28 0 -5 -4 -6 -9
-2 -6 3 -15 -5 -22 -17 -11 -21 -11 -22 4 -10 13 11 15 10 12 -5 -2 -10 -4
-20 -4 -23 -1 -2 -6 1 -13 8 -14 14 -42 16 -34 3 3 -5 -1 -12 -10 -15 -9 -4
-14 -13 -10 -22 3 -8 2 -13 -2 -10 -5 3 -16 -11 -25 -30 -29 -60 -17 -238 14
-218 5 3 6 -1 3 -9 -3 -8 3 -23 13 -32 10 -10 18 -23 18 -29 0 -6 10 -11 22
-10 12 0 19 -5 17 -11 -7 -17 22 -38 51 -37 13 0 22 -4 20 -8 -8 -13 74 -23
89 -11 7 6 22 8 31 4 14 -5 16 -3 10 7 -5 9 -4 11 4 6 17 -11 126 63 116 78
-3 3 -2 4 2 0 4 -3 6 -21 4 -40 l-3 -34 56 0 56 0 0 245 0 245 -48 0 c-52 0
-66 -6 -55 -24 4 -6 8 -18 8 -28 2 -19 -9 -15 -72 28 -20 14 -43 22 -50 19 -9
-3 -11 0 -7 7 5 7 -1 9 -19 4 -14 -3 -29 -2 -32 4 -8 13 -55 13 -55 -1z m214
-77 c3 -5 -1 -9 -9 -9 -8 0 -12 4 -9 9 3 4 7 8 9 8 2 0 6 -4 9 -8z m-72 -34
c9 -1 16 -5 15 -8 -1 -3 8 -21 20 -40 31 -50 35 -125 11 -172 -11 -21 -24 -41
-29 -44 -5 -3 -6 -10 -3 -16 4 -6 2 -8 -3 -5 -6 4 -26 1 -44 -7 -38 -16 -98
-9 -137 15 -61 37 -82 157 -39 220 13 19 22 40 21 47 -1 7 0 8 2 3 3 -5 17 -3
32 5 24 13 70 14 154 2z m46 -33 c-3 -3 -9 2 -12 12 -6 14 -5 15 5 6 7 -7 10
-15 7 -18z m-173 -373 c-3 -3 -11 0 -18 7 -9 10 -8 11 6 5 10 -3 15 -9 12 -12z"/>
<path d="M4177 1307 c4 -6 1 -7 -6 -2 -8 4 -27 -7 -52 -31 l-39 -38 0 37 0 37
-50 0 -50 0 0 -245 0 -245 55 0 55 0 0 145 c0 126 3 151 21 189 13 28 31 48
48 56 29 12 122 10 114 -2 -2 -5 0 -8 6 -8 5 0 16 -2 23 -5 16 -6 60 76 50 92
-11 16 -52 26 -119 28 -39 1 -60 -2 -56 -8z"/>
<path d="M6088 1312 c-17 -3 -18 -23 -18 -248 l0 -244 49 0 c30 0 51 5 54 13
2 6 5 116 6 243 l2 231 -23 -1 c-13 -1 -26 3 -30 9 -5 6 -8 4 -8 -5 0 -9 -3
-11 -8 -5 -4 6 -15 9 -24 7z"/>
<path d="M6463 1306 c-10 -5 -25 -17 -33 -26 -12 -13 -13 -13 -5 0 6 10 2 9
-12 -4 -13 -10 -20 -22 -18 -26 3 -4 -2 -13 -10 -20 -17 -14 -18 -11 -15 43
l2 37 -51 0 -51 0 0 -245 0 -245 54 0 55 0 3 163 c3 158 4 163 29 189 14 15
38 32 52 37 31 12 117 11 117 -2 0 -4 5 -5 12 -1 6 4 8 3 5 -3 -4 -6 1 -17 10
-24 15 -12 16 -12 9 6 -4 11 -3 16 1 11 11 -11 14 -40 19 -218 l5 -158 55 0
56 0 -4 192 c-2 142 -6 192 -15 196 -7 2 -13 9 -13 16 0 16 -41 52 -88 76 -40
21 -136 25 -169 6z"/>
<path d="M7480 1065 l0 -255 60 0 60 0 0 255 0 255 -60 0 -60 0 0 -255z"/>
<path d="M4886 1222 c-9 -106 2 -258 21 -295 22 -44 56 -78 71 -72 7 2 11 1 8
-4 -3 -5 1 -14 9 -21 19 -16 165 -26 165 -11 0 6 6 8 13 6 15 -6 70 42 62 54
-9 15 12 22 22 8 16 -20 22 -56 9 -61 -6 -2 -1 -5 11 -5 12 -1 24 5 26 12 4
10 6 10 6 0 1 -8 14 -13 31 -13 l30 0 -2 243 -3 242 -53 3 -53 3 1 -113 c2
-151 -12 -227 -45 -251 -14 -10 -23 -22 -20 -27 6 -10 -102 -6 -134 5 -19 7
-22 5 -16 -6 5 -8 -1 -6 -13 5 -12 10 -19 23 -16 27 3 5 2 15 -2 21 -11 17
-12 32 -14 196 l-2 143 -53 -2 -53 -2 -6 -85z"/>
<path d="M1469 1163 c-13 -16 -12 -17 4 -4 16 13 21 21 13 21 -2 0 -10 -8 -17
-17z"/>
<path d="M765 930 c18 -20 17 -20 -203 -20 -141 0 -222 -4 -222 -10 0 -5 9
-10 19 -10 13 0 18 -6 16 -17 -2 -10 -4 -22 -4 -27 -1 -4 -8 -6 -16 -2 -24 9
-17 -8 15 -39 16 -16 30 -24 30 -18 0 6 -7 16 -15 23 -19 16 -10 30 21 30 19
0 24 -5 24 -25 0 -14 5 -25 10 -25 6 0 10 23 10 50 l0 50 74 0 c68 0 99 -10
82 -28 -4 -3 -32 -6 -64 -6 -54 -1 -57 -2 -60 -27 -2 -14 4 -31 12 -39 19 -15
20 -7 4 20 -11 17 -10 22 2 30 25 16 66 11 86 -11 12 -13 27 -19 41 -16 15 3
23 -1 23 -9 0 -8 5 -14 10 -14 6 0 10 23 10 51 l0 50 32 -3 c37 -4 50 -27 19
-35 -29 -8 -29 -53 0 -53 12 0 23 8 26 20 8 31 41 25 46 -7 2 -16 5 -4 6 25
l1 52 51 0 50 0 -3 -32 c-2 -25 -8 -34 -25 -36 -17 -3 -23 2 -23 17 0 11 8 22
18 24 13 4 12 5 -4 6 -12 0 -24 -6 -28 -14 -10 -26 5 -45 34 -45 16 0 31 -6
33 -12 3 -7 6 11 6 40 1 39 5 52 16 52 8 0 15 5 15 10 0 6 -31 10 -73 10 -61
0 -74 3 -85 20 -7 11 -17 20 -24 20 -6 0 -3 -9 7 -20z m-335 -60 c0 -13 -7
-20 -20 -20 -13 0 -20 7 -20 20 0 13 7 20 20 20 13 0 20 -7 20 -20z m220 -10
c0 -26 -4 -30 -27 -30 -21 0 -24 3 -15 12 7 7 12 20 12 30 0 10 7 18 15 18 10
0 15 -10 15 -30z m140 10 c0 -13 -7 -20 -20 -20 -13 0 -20 7 -20 20 0 13 7 20
20 20 13 0 20 -7 20 -20z m-60 -45 c0 -8 -4 -15 -10 -15 -5 0 -10 7 -10 15 0
8 5 15 10 15 6 0 10 -7 10 -15z"/>
<path d="M1350 944 c0 -6 5 -15 12 -22 9 -9 -26 -12 -160 -12 -108 0 -172 -4
-172 -10 0 -5 23 -10 50 -10 38 0 50 -4 50 -15 0 -10 -10 -15 -32 -15 -27 -1
-30 -2 -15 -11 9 -5 17 -17 17 -24 0 -20 -39 -19 -46 0 -4 8 -10 15 -15 15 -6
0 -5 -9 1 -20 7 -13 21 -20 40 -20 25 0 30 4 30 25 0 14 5 25 10 25 6 0 10
-11 10 -24 0 -14 5 -28 10 -31 6 -4 10 13 10 44 0 50 1 51 29 51 38 0 47 -15
21 -33 -20 -14 -20 -14 0 -32 11 -10 28 -15 40 -12 13 3 20 0 20 -9 0 -8 5
-14 10 -14 6 0 10 23 10 50 l0 50 50 0 c38 0 50 -4 50 -15 0 -10 -10 -15 -30
-15 -41 0 -56 -30 -30 -62 11 -12 19 -18 20 -12 0 5 -5 15 -11 21 -18 18 -2
43 26 43 21 0 25 -5 25 -30 0 -16 5 -30 10 -30 6 0 10 23 10 50 0 28 5 50 10
50 6 0 10 5 10 10 0 6 -5 10 -12 10 -6 0 -22 10 -35 22 -13 12 -23 17 -23 12z
m-90 -84 c0 -25 -4 -30 -25 -30 -14 0 -25 5 -25 10 0 6 5 10 10 10 6 0 10 9
10 20 0 11 7 20 15 20 10 0 15 -10 15 -30z"/>
<path d="M5025 940 c3 -5 8 -10 11 -10 2 0 4 5 4 10 0 6 -5 10 -11 10 -5 0 -7
-4 -4 -10z"/>
<path d="M7025 719 c-4 -6 -5 -12 -2 -15 2 -3 7 2 10 11 7 17 1 20 -8 4z"/>
<path d="M6535 140 c-3 -5 1 -10 10 -10 9 0 13 5 10 10 -3 6 -8 10 -10 10 -2
0 -7 -4 -10 -10z"/>
<path d="M7068 133 c6 -2 18 -2 25 0 6 3 1 5 -13 5 -14 0 -19 -2 -12 -5z"/>
</g>
</svg>
